<svg width="222" height="224" viewBox="0 0 222 224" fill="none" xmlns="http://www.w3.org/2000/svg">
<path d="M0 0H102.551C105.016 0 107.38 0.980451 109.123 2.72563C110.867 4.4708 111.846 6.83775 111.846 9.3058V112.005H110.163C110.163 54.1784 55.909 1.68435 0 1.68435V0Z" fill="#F0EBE5"/>
<path d="M110.164 0H212.705C215.17 0 217.535 0.980451 219.278 2.72563C221.021 4.4708 222 6.83775 222 9.3058V112.005H220.374C220.374 54.1784 166.119 1.68435 110.21 1.68435L110.164 0Z" fill="#F0EBE5"/>
<path d="M222 224H119.459C116.993 224 114.629 223.02 112.886 221.274C111.143 219.529 110.164 217.162 110.164 214.694V112.005H111.846C111.846 169.831 166.101 222.316 222 222.316V224Z" fill="#F0EBE5"/>
<path d="M111.846 224H9.29493C6.82976 224 4.46558 223.02 2.72244 221.274C0.979305 219.529 0 217.162 0 214.694V112.005H1.68244C1.68244 169.831 55.9369 222.316 111.846 222.316V224Z" fill="#F0EBE5"/>
</svg>
