<svg width="222" height="224" viewBox="0 0 222 224" fill="none" xmlns="http://www.w3.org/2000/svg">
<path d="M0 111.986V9.32466C0 6.85661 0.979182 4.48961 2.7221 2.74443C4.46502 0.999254 6.8289 0.0188599 9.29376 0.0188599H111.85V1.69389C54.099 1.69389 1.68217 56.0118 1.68217 111.986H0Z" fill="#F0EBE5"/>
<path d="M110.14 0H212.687C215.152 0 217.516 0.980451 219.259 2.72563C221.002 4.4708 221.981 6.83775 221.981 9.3058V112.005H220.308C220.308 54.1784 166.061 1.68435 110.159 1.68435L110.14 0Z" fill="#F0EBE5"/>
<path d="M222 112.014V214.685C222 217.153 221.021 219.52 219.278 221.265C217.535 223.01 215.171 223.991 212.706 223.991H110.14V222.344C167.892 222.344 220.318 168.026 220.318 112.051L222 112.014Z" fill="#F0EBE5"/>
<path d="M111.841 224H9.30304C6.83818 224 4.4743 223.02 2.73138 221.274C0.98846 219.529 0.00927734 217.162 0.00927734 214.694V112.005H1.69145C1.69145 169.831 55.9391 222.316 111.841 222.316V224Z" fill="#F0EBE5"/>
</svg>
