<svg width="223" height="224" viewBox="0 0 223 224" fill="none" xmlns="http://www.w3.org/2000/svg">
<path d="M0 0H102.844C105.316 0 107.687 0.980451 109.435 2.72563C111.183 4.4708 112.165 6.83775 112.165 9.3058V112.005H110.478C110.478 54.1784 56.0687 1.68435 0 1.68435V0Z" fill="#F0EBE5"/>
<path d="M110.441 0H213.275C215.748 0 218.119 0.980451 219.867 2.72563C221.615 4.4708 222.597 6.83775 222.597 9.3058V112.005H220.919C220.919 54.1784 166.51 1.68435 110.45 1.68435L110.441 0Z" fill="#F0EBE5"/>
<path d="M0 112.005H102.844C105.316 112.005 107.687 112.985 109.435 114.73C111.183 116.475 112.165 118.842 112.165 121.31V224H110.478C110.478 166.174 56.0687 113.68 0 113.68V112.005Z" fill="#F0EBE5"/>
<path d="M110.441 112.005H213.275C215.748 112.005 218.119 112.985 219.867 114.73C221.615 116.475 222.597 118.842 222.597 121.31V224H220.919C220.919 166.174 166.51 113.68 110.45 113.68L110.441 112.005Z" fill="#F0EBE5"/>
</svg>
