<svg width="138" height="201" viewBox="0 0 138 201" fill="none" xmlns="http://www.w3.org/2000/svg">
<path d="M45.6544 198.738C45.4568 198.559 45.3005 198.34 45.1964 198.095C45.0924 197.849 45.043 197.585 45.0518 197.318C45.0461 197.085 45.0755 196.853 45.139 196.629L63.7798 139.239C63.9388 138.678 64.2895 138.19 64.7709 137.86C65.2606 137.516 65.8459 137.336 66.4439 137.344H73.1596C73.7576 137.336 74.3429 137.516 74.8326 137.86C75.314 138.19 75.6647 138.678 75.8237 139.239L94.4962 196.629C94.5597 196.853 94.5891 197.085 94.5834 197.318C94.5922 197.585 94.5428 197.849 94.4388 198.095C94.3347 198.34 94.1784 198.559 93.9808 198.738C93.5864 199.108 93.063 199.31 92.5219 199.301H86.3215C85.7237 199.299 85.1422 199.106 84.6626 198.749C84.183 198.392 83.8307 197.891 83.6575 197.318L79.812 184.902H59.6805L55.8509 197.318C55.6813 197.886 55.3338 198.383 54.8598 198.738C54.3787 199.109 53.7865 199.307 53.1789 199.301H47.1291C46.8584 199.308 46.5888 199.262 46.3357 199.166C46.0827 199.069 45.8512 198.924 45.6544 198.738ZM76.8069 175.205L69.7502 152.211L62.6935 175.205H76.8069Z" fill="#175F2F"/>
<path d="M16.7857 198.785C16.6157 198.617 16.4822 198.415 16.3936 198.193C16.3049 197.97 16.263 197.732 16.2703 197.493V147.842H1.80807C1.57084 147.846 1.33516 147.803 1.11495 147.715C0.894742 147.626 0.694469 147.495 0.525956 147.328C0.357443 147.161 0.224108 146.962 0.133823 146.742C0.0435367 146.523 -0.0018681 146.288 0.000288395 146.05V139.596C-0.00401149 139.358 0.0398101 139.121 0.129137 138.899C0.218465 138.678 0.351465 138.477 0.520197 138.308C0.688929 138.14 0.889932 138.007 1.11121 137.917C1.33248 137.828 1.56949 137.784 1.80807 137.788H41.2225C41.4617 137.782 41.6997 137.824 41.922 137.913C42.1443 138.001 42.3462 138.134 42.5154 138.303C42.6846 138.472 42.8175 138.674 42.906 138.897C42.9945 139.119 43.0368 139.357 43.0303 139.596V146.05C43.0368 146.289 42.9945 146.527 42.906 146.75C42.8175 146.972 42.6846 147.174 42.5154 147.343C42.3462 147.512 42.1443 147.645 41.922 147.734C41.6997 147.822 41.4617 147.865 41.2225 147.858H26.7682V197.509C26.7705 197.749 26.7241 197.987 26.6318 198.208C26.5396 198.43 26.4034 198.63 26.2315 198.798C26.0596 198.965 25.8555 199.096 25.6315 199.183C25.4076 199.269 25.1685 199.309 24.9287 199.301H18.0702C17.8322 199.307 17.5955 199.264 17.3746 199.176C17.1537 199.087 16.9533 198.954 16.7857 198.785Z" fill="#175F2F"/>
<path d="M42.8073 129.233C42.4602 128.891 42.1863 128.482 42.0023 128.031C41.8183 127.58 41.728 127.096 41.7369 126.609V72.4782C41.7316 71.9915 41.8236 71.5087 42.0074 71.058C42.1912 70.6073 42.4631 70.1979 42.8073 69.8537C43.1515 69.5096 43.5609 69.2376 44.0116 69.0538C44.4622 68.87 44.9451 68.7781 45.4318 68.7834H74.7686C75.0078 68.7768 75.2458 68.8191 75.4681 68.9076C75.6904 68.9962 75.8923 69.1291 76.0615 69.2983C76.2307 69.4675 76.3636 69.6694 76.4521 69.8917C76.5407 70.114 76.5829 70.352 76.5764 70.5912V77.069C76.5807 77.3076 76.5369 77.5446 76.4475 77.7659C76.3582 77.9872 76.2252 78.1882 76.0565 78.3569C75.8877 78.5256 75.6867 78.6586 75.4655 78.748C75.2442 78.8373 75.0072 78.8811 74.7686 78.8768H52.2348V93.4977H69.0122C69.2508 93.4934 69.4878 93.5372 69.7091 93.6265C69.9304 93.7158 70.1314 93.8488 70.3001 94.0176C70.4689 94.1863 70.6019 94.3873 70.6912 94.6086C70.7805 94.8299 70.8243 95.0669 70.82 95.3055V101.419C70.8277 101.658 70.7862 101.897 70.6982 102.121C70.6102 102.344 70.4774 102.547 70.3081 102.717C70.1388 102.887 69.9365 103.02 69.7136 103.109C69.4908 103.198 69.2521 103.241 69.0122 103.234H52.2348V120.273H74.7765C75.0157 120.267 75.2537 120.309 75.476 120.398C75.6983 120.486 75.9002 120.619 76.0694 120.788C76.2386 120.958 76.3715 121.159 76.4601 121.382C76.5486 121.604 76.5909 121.842 76.5843 122.081V128.527C76.5909 128.767 76.5486 129.005 76.4601 129.227C76.3715 129.449 76.2386 129.651 76.0694 129.82C75.9002 129.99 75.6983 130.122 75.476 130.211C75.2537 130.299 75.0157 130.342 74.7765 130.335H45.4397C44.9489 130.341 44.4621 130.246 44.0094 130.057C43.5566 129.867 43.1475 129.587 42.8073 129.233Z" fill="#175F2F"/>
<path d="M0.523829 61.013C0.352799 60.8448 0.218105 60.6433 0.128091 60.421C0.0380765 60.1987 -0.00534073 59.9603 0.000524011 59.7206V3.70307C-0.00263591 3.21593 0.0909801 2.73302 0.275943 2.28235C0.460906 1.83168 0.733532 1.42223 1.078 1.07776C1.42246 0.733298 1.83191 0.460674 2.28258 0.275711C2.73325 0.0907475 3.21617 -0.00287153 3.70331 0.000288386H33.0401C33.2787 -0.0040115 33.5157 0.0398116 33.737 0.129139C33.9583 0.218466 34.1593 0.351466 34.328 0.520199C34.4967 0.688931 34.6297 0.889935 34.7191 1.11121C34.8084 1.33248 34.8522 1.56949 34.8479 1.80807V8.26217C34.8543 8.50131 34.8119 8.73925 34.7233 8.96146C34.6347 9.18367 34.5018 9.38548 34.3325 9.55458C34.164 9.72456 33.9623 9.85804 33.7399 9.9467C33.5176 10.0354 33.2794 10.0773 33.0401 10.07H10.4983V26.1656H27.3076C27.5455 26.1613 27.7818 26.2049 28.0025 26.2937C28.2233 26.3825 28.4239 26.5148 28.5925 26.6827C28.7612 26.8506 28.8943 27.0507 28.9841 27.271C29.0739 27.4914 29.1186 27.7275 29.1153 27.9654V34.0786C29.1196 34.3172 29.0758 34.5542 28.9865 34.7754C28.8972 34.9967 28.7642 35.1977 28.5954 35.3665C28.4267 35.5352 28.2257 35.6682 28.0044 35.7575C27.7831 35.8468 27.5461 35.8907 27.3076 35.8864H10.4983V59.7206C10.5049 59.9597 10.4626 60.1977 10.3741 60.42C10.2856 60.6423 10.1526 60.8442 9.98346 61.0134C9.81426 61.1826 9.61235 61.3156 9.39005 61.4041C9.16776 61.4926 8.92975 61.5349 8.69057 61.5283H1.80831C1.57037 61.5346 1.33367 61.4921 1.11277 61.4035C0.891865 61.3149 0.691442 61.1819 0.523829 61.013Z" fill="#175F2F"/>
<path d="M93.8076 129.875C90.8281 128.889 88.0037 127.485 85.4188 125.705C85.264 125.601 85.131 125.468 85.0277 125.313C84.9243 125.158 84.8524 124.984 84.8163 124.801C84.6959 124.415 84.7271 123.999 84.9035 123.635L87.9164 118.22C88.0522 117.902 88.2808 117.633 88.5723 117.448C88.8638 117.262 89.2045 117.169 89.5498 117.181C90.0039 117.181 90.4498 117.302 90.8422 117.53C95.1397 120.226 99.1543 121.574 102.886 121.574C105.926 121.574 108.32 120.842 110.07 119.377C110.919 118.69 111.597 117.816 112.053 116.823C112.508 115.83 112.727 114.745 112.694 113.653C112.74 112.238 112.282 110.852 111.402 109.744C110.456 108.611 109.284 107.687 107.961 107.032C106.523 106.287 104.43 105.367 101.681 104.273L99.1834 103.242C95.5382 101.752 92.1997 99.6018 89.3357 96.8991C86.6663 94.3249 85.3448 90.5402 85.3713 85.545C85.3083 82.2867 86.1304 79.0724 87.7499 76.2444C89.3057 73.5711 91.5876 71.3937 94.3309 69.9648C97.3366 68.4275 100.676 67.6593 104.052 67.7288C107.139 67.739 110.205 68.2477 113.13 69.2353C116.044 70.1899 118.789 71.5973 121.265 73.4059C121.576 73.6178 121.792 73.9418 121.868 74.3098C121.981 74.696 121.95 75.1103 121.781 75.4753L118.942 80.8987C118.802 81.2142 118.571 81.4807 118.279 81.6643C117.986 81.8479 117.646 81.9402 117.301 81.9294C116.849 81.9303 116.406 81.8098 116.016 81.5806C114.025 80.2689 111.868 79.229 109.602 78.4883C107.839 77.9005 105.997 77.5798 104.139 77.5368C101.904 77.4147 99.7099 78.1717 98.0258 79.6459C97.2995 80.3652 96.7271 81.2246 96.3433 82.1719C95.9595 83.1192 95.7723 84.1346 95.7931 85.1565C95.8138 86.1784 96.0421 87.1854 96.4641 88.1164C96.8861 89.0473 97.4929 89.8827 98.2478 90.5719C99.8811 92.0361 102.506 93.5135 106.121 95.0041C106.637 95.1786 108.595 95.9715 112.012 97.3828C115.208 98.6503 117.996 100.767 120.076 103.504C122.096 106.259 123.152 109.603 123.081 113.019C123.141 116.365 122.262 119.661 120.544 122.533C118.831 125.332 116.355 127.585 113.408 129.027C110.143 130.625 106.544 131.421 102.91 131.35C99.8162 131.352 96.7425 130.854 93.8076 129.875Z" fill="#175F2F"/>
<path d="M118.855 146.51C120.712 146.553 122.553 146.871 124.318 147.454C126.585 148.196 128.742 149.238 130.732 150.554C131.125 150.78 131.571 150.897 132.025 150.895C132.369 150.908 132.71 150.817 133.001 150.633C133.293 150.449 133.522 150.181 133.658 149.864L136.496 144.441C136.671 144.08 136.702 143.666 136.584 143.283C136.51 142.914 136.293 142.589 135.981 142.379C133.505 140.568 130.76 139.158 127.846 138.201C124.92 137.215 121.855 136.709 118.768 136.702L116.111 146.843C117.008 146.619 117.93 146.507 118.855 146.51Z" fill="#175F2F"/>
<path d="M134.862 172.493C132.768 169.732 129.953 167.603 126.727 166.34C123.318 164.937 121.351 164.144 120.836 163.962C117.22 162.471 114.596 160.994 112.963 159.529L112.788 159.363L109.926 170.202C111.225 170.959 112.57 171.634 113.954 172.223L116.443 173.254C119.203 174.338 121.298 175.255 122.731 176.006C124.051 176.665 125.222 177.588 126.172 178.717C127.05 179.83 127.507 181.217 127.464 182.634C127.494 183.725 127.273 184.809 126.818 185.802C126.363 186.794 125.686 187.669 124.84 188.359C123.09 189.818 120.693 190.547 117.649 190.547C113.948 190.547 109.939 189.202 105.62 186.511L103.004 196.414C104.775 197.395 106.633 198.21 108.554 198.849C111.508 199.844 114.603 200.353 117.72 200.355C121.355 200.431 124.954 199.634 128.218 198.032C131.165 196.589 133.64 194.336 135.354 191.538C137.07 188.665 137.949 185.37 137.891 182.024C137.957 178.6 136.893 175.25 134.862 172.493Z" fill="#175F2F"/>
<path d="M67.1655 36.4018C71.0123 35.2728 74.3931 32.9346 76.807 29.7337C78.9987 26.8227 80.2752 23.3257 80.4743 19.6874C80.6733 16.049 79.786 12.4337 77.925 9.30095C76.2316 6.47708 73.8289 4.14543 70.9555 2.53763C68.0179 0.869918 64.6918 0.00828775 61.314 0.040031H45.2263C44.7392 0.0368711 44.2562 0.130489 43.8056 0.315452C43.3549 0.500415 42.9455 0.77304 42.601 1.11751C42.2565 1.46197 41.9839 1.87142 41.7989 2.32209C41.614 2.77276 41.5204 3.25568 41.5235 3.74281V42.8322L52.0213 59.7127V37.3454H56.2395L70.5115 60.3391C70.7436 60.7222 71.0742 61.0361 71.4688 61.2481C71.8635 61.4601 72.3077 61.5623 72.7553 61.5443H79.8041C80.3261 61.5631 80.835 61.3783 81.2234 61.0289C81.4044 60.8664 81.5483 60.6669 81.6454 60.4439C81.7425 60.221 81.7906 59.9797 81.7863 59.7365C81.7765 59.3124 81.6592 58.8977 81.4454 58.5313L67.1655 36.4018ZM52.0213 27.4501V9.90355H60.7986C61.993 9.85888 63.1841 10.0564 64.3001 10.4843C65.4161 10.9122 66.4339 11.5615 67.2923 12.3932C68.1291 13.2189 68.7863 14.2085 69.2229 15.3C69.6595 16.3915 69.866 17.5613 69.8296 18.7363C69.8677 19.8962 69.6615 21.0511 69.2244 22.1261C68.7873 23.2011 68.129 24.1722 67.2923 24.9763C66.4275 25.7964 65.4077 26.4356 64.2926 26.8563C63.1775 27.277 61.9896 27.4708 60.7986 27.4264L52.0213 27.4501Z" fill="#175F2F"/>
</svg>
