<svg width="52" height="42" viewBox="0 0 52 42" fill="none" xmlns="http://www.w3.org/2000/svg">
<path d="M51.1648 4.92226C49.2824 5.75681 47.2598 6.32093 45.1362 6.57408C47.303 5.27508 48.9681 3.21794 49.7508 0.768106C47.7229 1.97076 45.4757 2.84518 43.0857 3.31428C41.1714 1.27575 38.4432 0 35.4239 0C29.6272 0 24.9269 4.699 24.9269 10.497C24.9269 11.3189 25.0199 12.1209 25.1993 12.8897C16.4751 12.4518 8.74086 8.27242 3.56345 1.92093C2.6598 3.47176 2.14219 5.27574 2.14219 7.19867C2.14219 10.8405 3.99535 14.0525 6.81196 15.9355C5.09169 15.8804 3.47309 15.408 2.05781 14.6226C2.05648 14.6664 2.05648 14.7096 2.05648 14.7548C2.05648 19.8392 5.67442 24.0817 10.4757 25.0472C9.59535 25.2857 8.66844 25.4146 7.71096 25.4146C7.03389 25.4146 6.37674 25.3495 5.73555 25.2266C7.07109 29.396 10.9475 32.4319 15.5409 32.5169C11.9482 35.3315 7.42259 37.0106 2.50432 37.0106C1.65714 37.0106 0.821927 36.9614 0 36.8638C4.64518 39.8418 10.1628 41.5787 16.0904 41.5787C35.398 41.5787 45.9561 25.5847 45.9561 11.7149C45.9561 11.2605 45.9455 10.8066 45.9256 10.3555C47.9781 8.87641 49.7581 7.02724 51.1648 4.92226Z" fill="#175F2F"/>
</svg>
