<svg width="350" height="311" viewBox="0 0 350 311" fill="none" xmlns="http://www.w3.org/2000/svg">
<path d="M284.027 10.6038C284.347 11.7828 284.509 12.9991 284.509 14.2208V67.7754H316.92C316.92 43.8447 303.83 22.7648 284.027 10.6038Z" fill="#F0EBE5"/>
<path d="M316.441 10.6038C316.76 11.783 316.92 12.9993 316.919 14.2208V67.7754H348.507V57.4764C345.357 37.8631 333.345 20.9851 316.441 10.6038Z" fill="#F0EBE5"/>
<path d="M348.508 9.52043V0.00830078H337.484C342.652 1.1865 346.815 4.81586 348.508 9.52043Z" fill="#F0EBE5"/>
<path d="M92.2891 23.2139C92.2891 23.2139 92.2891 96.3283 92.2891 96.3366L181.292 102.401C181.469 102.277 181.642 102.145 181.815 102.022L182.305 54.5846L174.777 18.4558L113.768 2.78076C100.525 3.74886 92.2891 12.5359 92.2891 23.2139Z" fill="#F0EBE5"/>
<path d="M99.8646 112.877C95.0097 109.808 91.7443 105.56 90.4678 100.827V209.279V194.98C90.4678 156.256 115.381 123.328 150.053 111.39L122.233 116.799C114.376 118.327 106.223 116.897 99.8646 112.877Z" fill="#F0EBE5"/>
<path d="M264.311 283.02V310.951H348.508V300.363C343.08 265.627 311.365 238.981 273.044 238.981H331.715C339.588 238.981 346.251 243.851 348.508 250.574V172.565C301.931 173.138 264.311 222.367 264.311 283.02Z" fill="#F0EBE5"/>
<path d="M320.758 172.549H348.508V138.455C347.059 145.99 343.767 153.048 338.924 158.998C334.081 164.948 327.84 169.604 320.758 172.549Z" fill="#F0EBE5"/>
<path d="M188.922 310.951C231.335 304.734 264.311 257.969 264.311 201.188V198.057C264.311 188.694 268.194 180.512 273.983 176.075H234.926C222.64 176.075 210.857 171.193 202.169 162.501C193.481 153.81 188.601 142.022 188.601 129.73V310.951H188.922Z" fill="#F0EBE5"/>
<path d="M251.615 10.6038C251.933 11.783 252.094 12.9993 252.093 14.2208V67.7754H284.508C284.508 43.8447 271.414 22.7648 251.615 10.6038Z" fill="#F0EBE5"/>
<path d="M219.203 10.6038C219.521 11.7831 219.682 12.9993 219.681 14.2208V67.7754C219.681 34.7776 194.846 7.25872 161.85 0.94751H160.051C168.542 3.53049 175.134 9.59864 176.72 17.1746L190.514 83.3928C190.753 84.5322 190.873 85.6933 190.873 86.8574C190.873 95.7392 183.802 103.838 173.257 106.784C175.097 106.668 176.963 106.603 178.824 106.603H188.6V114.141C188.6 101.85 193.48 90.0617 202.168 81.3703C210.856 72.6788 222.639 67.796 234.925 67.796H252.092C252.092 43.8448 239.002 22.7648 219.203 10.6038Z" fill="#F0EBE5"/>
<path d="M0 254.817V262.459L88.533 310.947V219.154L26.1481 0.115479H25.9422L0 254.817Z" fill="#F0EBE5"/>
<path d="M89.8635 34.1143V23.2139C89.8635 22.0439 90.2094 7.41526 90.2094 7.41526C90.2094 3.76942 92.9395 0.725047 96.5796 0H52.4531C71.5392 2.52943 86.7092 16.4207 89.8635 34.1143Z" fill="#F0EBE5"/>
</svg>
