<svg width="282" height="81" viewBox="0 0 282 81" fill="none" xmlns="http://www.w3.org/2000/svg">
<path d="M242.209 76.84L225.496 25.47C225.349 24.9705 225.037 24.5357 224.611 24.2371C224.171 23.9291 223.645 23.7679 223.109 23.7765H217.087C216.55 23.767 216.024 23.9282 215.585 24.2371C215.155 24.5326 214.842 24.9685 214.699 25.47L198.001 76.84C197.942 77.04 197.916 77.2481 197.923 77.4564C197.916 77.6946 197.961 77.9314 198.054 78.1508C198.147 78.3702 198.286 78.5671 198.461 78.7283C198.816 79.0598 199.287 79.2391 199.772 79.2278H205.163C205.706 79.2344 206.235 79.0585 206.665 78.7283C207.089 78.4098 207.399 77.9641 207.551 77.4564L211.015 66.3534H229.038L232.503 77.4458C232.655 77.9535 232.965 78.3992 233.388 78.7176C233.818 79.0488 234.348 79.2249 234.89 79.2172H240.438C240.922 79.2279 241.391 79.0486 241.745 78.7176C241.92 78.5565 242.059 78.3596 242.152 78.1402C242.245 77.9208 242.29 77.684 242.283 77.4458C242.288 77.2413 242.263 77.0372 242.209 76.84ZM213.711 57.6595L220.027 37.1115L226.343 57.6595H213.711Z" fill="#F0EBE5"/>
<path d="M197.923 25.5796C197.927 25.3658 197.888 25.1533 197.808 24.9549C197.729 24.7565 197.609 24.5763 197.458 24.4251C197.307 24.2739 197.127 24.1548 196.928 24.0749C196.73 23.9951 196.518 23.9562 196.304 23.9605H161.033C160.819 23.9562 160.607 23.9951 160.409 24.0749C160.21 24.1548 160.03 24.2739 159.879 24.4251C159.728 24.5763 159.609 24.7565 159.529 24.9549C159.449 25.1533 159.41 25.3658 159.414 25.5796V31.3543C159.41 31.5681 159.449 31.7806 159.529 31.979C159.609 32.1773 159.728 32.3576 159.879 32.5088C160.03 32.66 160.21 32.7791 160.409 32.8589C160.607 32.9387 160.819 32.9777 161.033 32.9733H173.97V77.4172C173.965 77.631 174.004 77.8435 174.084 78.0419C174.164 78.2403 174.283 78.4205 174.434 78.5717C174.585 78.7229 174.766 78.842 174.964 78.9219C175.162 79.0017 175.375 79.0406 175.589 79.0363H181.749C181.962 79.0406 182.175 79.0017 182.373 78.9219C182.572 78.842 182.752 78.7229 182.903 78.5717C183.054 78.4205 183.173 78.2403 183.253 78.0419C183.333 77.8435 183.372 77.631 183.367 77.4172V32.9733H196.304C196.518 32.9777 196.73 32.9387 196.928 32.8589C197.127 32.7791 197.307 32.66 197.458 32.5088C197.609 32.3576 197.729 32.1773 197.808 31.979C197.888 31.7806 197.927 31.5681 197.923 31.3543V25.5796Z" fill="#F0EBE5"/>
<path d="M111.993 1H85.7305C85.2948 0.996696 84.8628 1.08015 84.4597 1.24549C84.0565 1.41083 83.6903 1.65475 83.3824 1.96306C83.0745 2.27136 82.831 2.63786 82.6661 3.04122C82.5012 3.44459 82.4182 3.87673 82.422 4.31249V52.7597C82.4182 53.1955 82.5012 53.6276 82.6661 54.031C82.831 54.4343 83.0745 54.8008 83.3824 55.1091C83.6903 55.4174 84.0565 55.6614 84.4597 55.8267C84.8628 55.9921 85.2948 56.0755 85.7305 56.0722H111.993C112.207 56.0775 112.419 56.0394 112.618 55.9602C112.817 55.8809 112.997 55.7622 113.148 55.6111C113.3 55.4601 113.419 55.2799 113.499 55.0815C113.578 54.883 113.617 54.6705 113.612 54.4567V48.6785C113.617 48.4647 113.578 48.2521 113.499 48.0537C113.419 47.8553 113.3 47.6751 113.148 47.524C112.997 47.373 112.817 47.2543 112.618 47.175C112.419 47.0957 112.207 47.0576 111.993 47.063H91.802V31.8114H106.821C107.035 31.8162 107.248 31.7777 107.446 31.698C107.644 31.6183 107.825 31.4992 107.976 31.3478C108.127 31.1964 108.245 31.016 108.325 30.8174C108.404 30.6187 108.442 30.4061 108.437 30.1923V24.7223C108.443 24.5086 108.405 24.2959 108.326 24.0972C108.247 23.8986 108.128 23.7181 107.977 23.5669C107.825 23.4158 107.645 23.297 107.446 23.2179C107.248 23.1387 107.035 23.101 106.821 23.1068H91.802V10.0234H111.993C112.207 10.0278 112.419 9.98884 112.618 9.90901C112.816 9.82919 112.996 9.71009 113.147 9.55887C113.299 9.40766 113.418 9.22744 113.498 9.02905C113.577 8.83066 113.616 8.61817 113.612 8.40437V2.6155C113.617 2.40172 113.578 2.18918 113.499 1.99074C113.419 1.79231 113.3 1.61212 113.148 1.46108C112.997 1.31004 112.817 1.1913 112.618 1.11204C112.419 1.03279 112.207 0.994673 111.993 1Z" fill="#F0EBE5"/>
<path d="M29.5751 1H3.31246C2.87673 0.997179 2.44477 1.08093 2.04166 1.2464C1.63855 1.41187 1.27231 1.65575 0.964195 1.96391C0.656079 2.27207 0.41222 2.63835 0.246774 3.04152C0.0813275 3.44468 -0.00241516 3.8767 0.00040825 4.31249V54.4567C-0.00445207 54.6705 0.0341288 54.883 0.113808 55.0815C0.193487 55.2799 0.312606 55.4601 0.463957 55.6111C0.615308 55.7622 0.795737 55.8809 0.994318 55.9602C1.1929 56.0394 1.4055 56.0775 1.61924 56.0722H7.7793C7.99304 56.0775 8.20564 56.0394 8.40422 55.9602C8.60281 55.8809 8.78324 55.7622 8.93459 55.6111C9.08594 55.4601 9.20506 55.2799 9.28473 55.0815C9.36441 54.883 9.403 54.6705 9.39813 54.4567V33.1187H24.4281C24.6421 33.125 24.8552 33.0876 25.0542 33.0087C25.2533 32.9298 25.4341 32.8111 25.5857 32.6599C25.7372 32.5086 25.8563 32.328 25.9356 32.1291C26.0149 31.9302 26.0528 31.7172 26.0469 31.5032V26.0331C26.0523 25.8191 26.0141 25.6061 25.9346 25.4073C25.8552 25.2084 25.7361 25.0278 25.5847 24.8764C25.4333 24.725 25.2527 24.6059 25.0539 24.5265C24.8551 24.447 24.6422 24.4088 24.4281 24.4141H9.39813V10.0234H29.5892C29.803 10.0278 30.0155 9.98884 30.2138 9.90901C30.4122 9.82919 30.5924 9.71009 30.7436 9.55887C30.8948 9.40766 31.0139 9.22744 31.0937 9.02905C31.1735 8.83066 31.2124 8.61817 31.2081 8.40437V2.6155C31.2129 2.40172 31.1744 2.18918 31.0947 1.99074C31.015 1.79231 30.8959 1.61212 30.7445 1.46108C30.5932 1.31004 30.4127 1.1913 30.2142 1.11204C30.0156 1.03279 29.803 0.994673 29.5892 1H29.5751Z" fill="#F0EBE5"/>
<path d="M145.277 49.5323C142.223 48.2758 140.465 47.5673 140.002 47.4067C136.769 46.0699 134.421 44.7473 132.956 43.4388C132.281 42.8214 131.739 42.0732 131.361 41.2397C130.984 40.4061 130.78 39.5046 130.762 38.5898C130.744 37.675 130.912 36.7661 131.255 35.9182C131.599 35.0702 132.112 34.301 132.762 33.6572C134.096 32.3984 135.919 31.7689 138.231 31.7689C139.893 31.8074 141.541 32.0927 143.119 32.6157C145.147 33.2801 147.077 34.213 148.858 35.3896C149.209 35.5927 149.607 35.6991 150.013 35.6979C150.321 35.7094 150.626 35.6273 150.887 35.4622C151.148 35.2972 151.353 35.057 151.476 34.7732L154.019 29.9196C154.174 29.5956 154.202 29.2252 154.097 28.8816C154.03 28.5505 153.835 28.259 153.555 28.0703C151.342 26.4539 148.888 25.1972 146.283 24.3469C143.664 23.4617 140.92 23.0059 138.157 22.9971C134.869 22.9971 131.968 23.6655 129.453 25.0023C126.997 26.2817 124.955 28.2312 123.562 30.6246C122.116 33.1548 121.382 36.0292 121.437 38.943C121.437 43.4116 122.631 46.8009 125.018 49.1107C127.583 51.5374 130.573 53.4698 133.838 54.8111L136.07 55.7357C138.536 56.7112 140.409 57.5378 141.692 58.2156C142.875 58.8043 143.924 59.6304 144.774 60.6424C145.558 61.6396 145.967 62.8813 145.928 64.1498C145.957 65.1262 145.76 66.0961 145.352 66.984C144.945 67.8719 144.338 68.6538 143.58 69.2691C142.014 70.5799 139.87 71.2353 137.147 71.2353C133.81 71.2353 130.217 70.0284 126.368 67.6146C126.017 67.412 125.618 67.3057 125.213 67.3064C124.904 67.2951 124.599 67.3773 124.337 67.5422C124.075 67.7072 123.87 67.9473 123.746 68.231L121.054 73.0846C120.9 73.4091 120.874 73.7795 120.98 74.1226C121.011 74.2864 121.075 74.4422 121.168 74.5809C121.26 74.7196 121.379 74.8384 121.518 74.9304C123.832 76.5253 126.361 77.7837 129.028 78.668C131.671 79.5565 134.44 80.0111 137.228 80.0142C140.771 80.0142 143.903 79.321 146.626 77.9346C149.251 76.6376 151.454 74.6214 152.978 72.121C154.513 69.5543 155.301 66.6092 155.252 63.6184C155.252 60.3354 154.353 57.4858 152.556 55.0697C150.685 52.5895 148.166 50.6734 145.277 49.5323Z" fill="#F0EBE5"/>
<path d="M74.519 53.3761L61.7348 33.5827C65.1773 32.5729 68.2023 30.4794 70.3603 27.6131C72.3256 25.0075 73.4705 21.8756 73.6491 18.6167C73.8276 15.3578 73.0317 12.1195 71.3628 9.31475C69.8508 6.77573 67.7001 4.67722 65.1248 3.22829C62.4961 1.73804 59.5208 0.968128 56.4993 0.996355H42.0963C41.6606 0.993531 41.2286 1.07728 40.8255 1.24275C40.4224 1.40821 40.0562 1.65211 39.748 1.96026C39.4399 2.26842 39.1961 2.6347 39.0306 3.03787C38.8652 3.44103 38.7814 3.87304 38.7842 4.30883V39.2971L48.182 54.4105V34.4294H51.9545L64.7387 54.9951C64.9473 55.3346 65.2428 55.6121 65.5947 55.799C65.9466 55.9858 66.342 56.0752 66.7401 56.0579H73.056C73.5235 56.0749 73.9794 55.9098 74.3277 55.5974C74.4891 55.4521 74.6173 55.2738 74.7035 55.0744C74.7897 54.8751 74.8319 54.6595 74.8271 54.4424C74.8184 54.0663 74.7122 53.6989 74.519 53.3761ZM48.182 25.5725V9.85679H56.0352C58.3968 9.85679 60.3356 10.602 61.8517 12.0923C63.3678 13.5826 64.1247 15.4827 64.1223 17.7926C64.1543 18.8302 63.9687 19.863 63.5777 20.8245C63.1866 21.7861 62.5987 22.6552 61.8517 23.376C60.3356 24.8379 58.3968 25.5701 56.0352 25.5725H48.182Z" fill="#F0EBE5"/>
<path d="M268.871 32.6263C270.899 33.2921 272.829 34.225 274.61 35.4003C274.961 35.6037 275.359 35.7101 275.765 35.7085C276.073 35.7196 276.378 35.6372 276.639 35.4722C276.9 35.3073 277.105 35.0673 277.228 34.7838L279.768 29.9303C279.924 29.6067 279.952 29.2356 279.845 28.8922C279.78 28.5615 279.586 28.2701 279.307 28.0809C277.094 26.4617 274.64 25.2016 272.035 24.3469C269.418 23.4599 266.675 23.004 263.912 22.9971L261.518 32.0736C262.328 31.8699 263.161 31.7711 263.997 31.7796C265.655 31.8197 267.297 32.105 268.871 32.6263Z" fill="#F0EBE5"/>
<path d="M278.304 55.0413C276.431 52.5708 273.914 50.6646 271.028 49.5323C267.97 48.2758 266.211 47.5672 265.75 47.4066C262.517 46.0698 260.169 44.7472 258.704 43.4387C258.648 43.3891 258.598 43.336 258.545 43.2864L255.984 52.9935C257.148 53.6689 258.352 54.2724 259.59 54.8003L261.822 55.725C264.287 56.7004 266.162 57.5271 267.447 58.2049C268.629 58.7937 269.677 59.6198 270.525 60.6317C271.312 61.628 271.721 62.8703 271.68 64.1391C271.708 65.1155 271.511 66.0854 271.104 66.9733C270.697 67.8611 270.09 68.6431 269.331 69.2583C267.766 70.5692 265.623 71.2246 262.902 71.2246C259.568 71.2246 255.978 70.02 252.133 67.611L249.792 76.4679C251.383 77.3476 253.051 78.0793 254.776 78.6537C257.42 79.5421 260.191 79.9967 262.98 80C266.522 80 269.654 79.3068 272.374 77.9204C274.999 76.6224 277.203 74.6066 278.729 72.1067C280.262 69.539 281.048 66.5944 281 63.6041C281 60.3117 280.101 57.4574 278.304 55.0413Z" fill="#F0EBE5"/>
</svg>
