<svg width="177" height="477" viewBox="0 0 177 477" fill="none" xmlns="http://www.w3.org/2000/svg">
<path d="M0.904593 317.852C5.41736 361.414 25.9162 401.757 58.4402 431.086C90.9642 460.416 133.205 476.649 177 476.65L37.9521 476.65C27.8853 476.646 18.2321 472.645 11.1151 465.525C3.99807 458.406 -1.8755e-06 448.751 -1.65954e-06 438.684L-6.9401e-06 317.879L0.904593 317.852Z" fill="#175F2F"/>
<path d="M0.904593 238.466C5.42053 282.026 25.9207 322.366 58.4444 351.693C90.9681 381.019 133.207 397.251 177 397.251L37.9521 397.251C27.8853 397.248 18.2321 393.246 11.1151 386.126C3.99807 379.007 -1.8755e-06 369.352 -1.65954e-06 359.285L-6.9395e-06 238.494L0.904593 238.466Z" fill="#175F2F"/>
<path d="M0.904593 159.066C5.42053 202.626 25.9207 242.966 58.4444 272.293C90.9681 301.619 133.207 317.851 177 317.851L37.9521 317.851C27.8853 317.847 18.2321 313.846 11.1151 306.726C3.99807 299.607 -1.8755e-06 289.952 -1.65954e-06 279.885L-6.9395e-06 159.094L0.904593 159.066Z" fill="#175F2F"/>
<path d="M0.904593 79.6673C5.42031 123.228 25.92 163.57 58.4434 192.899C90.9668 222.227 133.206 238.462 177 238.466L37.9521 238.466C27.8853 238.462 18.2321 234.46 11.1151 227.341C3.99807 220.221 -1.8755e-06 210.567 -1.65954e-06 200.5L-6.9401e-06 79.6948L0.904593 79.6673Z" fill="#175F2F"/>
<path d="M0.904593 0.15918C5.42053 43.7188 25.9207 84.0588 58.4444 113.385C90.9681 142.712 133.207 158.943 177 158.944L37.9521 158.944C27.8853 158.94 18.2321 154.939 11.1151 147.819C3.99807 140.699 -1.8755e-06 131.045 -1.65954e-06 120.978L-6.9395e-06 0.186584L0.904593 0.15918Z" fill="#175F2F"/>
</svg>
