<svg width="522" height="194" viewBox="0 0 522 194" fill="none" xmlns="http://www.w3.org/2000/svg">
<g clip-path="url(#clip0_103_2454)">
<path d="M173.965 1.02148C126.24 5.96756 82.0411 28.4356 49.9103 64.0838C17.7794 99.732 -0.00281448 146.03 3.34124e-07 194.03L3.34124e-07 41.624C-3.84265e-07 30.5873 4.3815 20.0023 12.1811 12.1967C19.9806 4.39115 30.5596 0.00398296 41.5918 0H173.935L173.965 1.02148Z" fill="#F0EBE5"/>
<path d="M260.933 1.02148C213.21 5.97104 169.015 28.4406 136.888 64.0884C104.76 99.7362 86.9797 146.032 86.9829 194.03V41.624C86.9829 30.5873 91.3644 20.0023 99.164 12.1967C106.964 4.39115 117.543 0.00398296 128.575 0H260.903L260.933 1.02148Z" fill="#F0EBE5"/>
<path d="M347.915 1.02148C300.192 5.97104 255.997 28.4406 223.87 64.0884C191.742 99.7362 173.962 146.032 173.965 194.03V41.624C173.965 30.5873 178.346 20.0023 186.146 12.1967C193.945 4.39115 204.524 0.00398296 215.557 0H347.885L347.915 1.02148Z" fill="#F0EBE5"/>
<path d="M434.897 1.02148C387.173 5.9708 342.976 28.4398 310.846 64.0873C278.716 99.7347 260.933 146.031 260.932 194.03V41.624C260.932 30.5873 265.314 20.0023 273.113 12.1967C280.913 4.39115 291.492 0.00398296 302.524 0H434.867L434.897 1.02148Z" fill="#F0EBE5"/>
<path d="M522 1.02148C474.277 5.97104 430.082 28.4406 397.954 64.0884C365.827 99.7362 348.047 146.032 348.05 194.03V41.624C348.05 30.5873 352.431 20.0023 360.231 12.1967C368.03 4.39115 378.609 0.00398296 389.642 0H521.97L522 1.02148Z" fill="#F0EBE5"/>
</g>
<defs>
<clipPath id="clip0_103_2454">
<rect width="522" height="194" fill="white"/>
</clipPath>
</defs>
</svg>
