<svg width="279" height="222" viewBox="0 0 279 222" fill="none" xmlns="http://www.w3.org/2000/svg">
<g clip-path="url(#clip0_170_3285)">
<path d="M50.4388 219.565C50.2205 219.367 50.0479 219.125 49.9329 218.854C49.8179 218.583 49.7634 218.291 49.7731 217.997C49.7668 217.739 49.7993 217.482 49.8694 217.234L70.4637 153.831C70.6394 153.211 71.0269 152.671 71.5587 152.307C72.0997 151.927 72.7464 151.728 73.407 151.737H80.8266C81.4872 151.728 82.1339 151.927 82.6749 152.307C83.2068 152.671 83.5942 153.211 83.7699 153.831L104.399 217.234C104.469 217.482 104.502 217.739 104.496 217.997C104.505 218.291 104.451 218.583 104.336 218.854C104.221 219.125 104.048 219.367 103.83 219.565C103.394 219.974 102.816 220.197 102.218 220.187H95.3679C94.7074 220.185 94.065 219.971 93.5351 219.577C93.0053 219.183 92.616 218.629 92.4246 217.997L88.1761 204.279H65.9349L61.7039 217.997C61.5166 218.623 61.1327 219.173 60.609 219.565C60.0774 219.975 59.4232 220.194 58.7519 220.187H52.0681C51.769 220.195 51.4712 220.144 51.1916 220.038C50.912 219.931 50.6562 219.77 50.4388 219.565ZM84.8561 193.565L77.0599 168.162L69.2636 193.565H84.8561Z" fill="#F0EBE5"/>
<path d="M18.5444 219.617C18.3566 219.431 18.2091 219.208 18.1111 218.963C18.0132 218.717 17.9668 218.454 17.975 218.189V163.335H1.99707C1.73497 163.34 1.47459 163.292 1.23131 163.195C0.988022 163.097 0.76676 162.952 0.580588 162.767C0.394415 162.583 0.247106 162.363 0.147359 162.12C0.0476111 161.878 -0.00255216 161.618 -0.000169663 161.356V154.225C-0.00492017 153.962 0.0434939 153.7 0.142183 153.455C0.240871 153.211 0.38781 152.989 0.574225 152.802C0.760641 152.616 0.982708 152.469 1.22717 152.37C1.47163 152.272 1.73348 152.223 1.99707 152.228H45.5421C45.8063 152.221 46.0693 152.267 46.3149 152.365C46.5605 152.463 46.7835 152.61 46.9705 152.797C47.1574 152.984 47.3042 153.207 47.4021 153.452C47.4999 153.698 47.5466 153.961 47.5393 154.225V161.356C47.5466 161.62 47.4999 161.883 47.4021 162.129C47.3042 162.374 47.1574 162.597 46.9705 162.784C46.7835 162.971 46.5605 163.118 46.3149 163.216C46.0693 163.314 45.8063 163.36 45.5421 163.353H29.573V218.207C29.5755 218.472 29.5243 218.735 29.4224 218.98C29.3204 219.225 29.17 219.446 28.98 219.631C28.7901 219.816 28.5646 219.961 28.3172 220.056C28.0698 220.152 27.8057 220.196 27.5407 220.187H19.9634C19.7006 220.194 19.4391 220.147 19.195 220.049C18.951 219.951 18.7295 219.804 18.5444 219.617V219.617Z" fill="#F0EBE5"/>
<path d="M47.2941 142.776C46.9106 142.398 46.608 141.947 46.4047 141.448C46.2014 140.95 46.1016 140.415 46.1115 139.877V80.0735C46.1056 79.5358 46.2072 79.0024 46.4103 78.5045C46.6134 78.0066 46.9138 77.5542 47.2941 77.174C47.6743 76.7938 48.1266 76.4933 48.6245 76.2902C49.1224 76.0872 49.6559 75.9856 50.1936 75.9915H82.6049C82.8691 75.9842 83.1321 76.0309 83.3777 76.1287C83.6233 76.2265 83.8463 76.3734 84.0333 76.5603C84.2202 76.7472 84.367 76.9703 84.4648 77.2159C84.5626 77.4615 84.6094 77.7244 84.6021 77.9887V85.1455C84.6069 85.409 84.5585 85.6709 84.4598 85.9153C84.3611 86.1598 84.2141 86.3819 84.0277 86.5683C83.8413 86.7547 83.6192 86.9016 83.3748 87.0003C83.1303 87.099 82.8685 87.1474 82.6049 87.1427H57.7095V103.296H76.2453C76.5088 103.291 76.7707 103.339 77.0152 103.438C77.2596 103.537 77.4817 103.684 77.6681 103.87C77.8545 104.057 78.0015 104.279 78.1001 104.523C78.1988 104.768 78.2472 105.029 78.2425 105.293V112.047C78.251 112.312 78.2051 112.576 78.1079 112.822C78.0106 113.069 77.864 113.293 77.6769 113.481C77.4899 113.669 77.2664 113.816 77.0202 113.915C76.774 114.013 76.5103 114.06 76.2453 114.053H57.7095V132.878H82.6136C82.8779 132.87 83.1408 132.917 83.3864 133.015C83.632 133.113 83.8551 133.26 84.042 133.447C84.2289 133.633 84.3758 133.857 84.4736 134.102C84.5714 134.348 84.6181 134.611 84.6109 134.875V141.997C84.6181 142.261 84.5714 142.524 84.4736 142.769C84.3758 143.015 84.2289 143.238 84.042 143.425C83.8551 143.612 83.632 143.759 83.3864 143.857C83.1408 143.954 82.8779 144.001 82.6136 143.994H50.2023C49.6601 144 49.1223 143.896 48.6221 143.686C48.1219 143.477 47.6699 143.167 47.2941 142.776V142.776Z" fill="#F0EBE5"/>
<path d="M0.578238 67.4068C0.389284 67.2211 0.240474 66.9985 0.141026 66.7529C0.0415787 66.5073 -0.00638872 66.2439 9.06462e-05 65.979V4.09091C-0.00340043 3.55272 0.100027 3.01919 0.304374 2.52129C0.508721 2.02339 0.809917 1.57103 1.19048 1.19047C1.57105 0.809903 2.02341 0.508708 2.52131 0.304361C3.01921 0.100014 3.55273 -0.00341661 4.09092 7.44678e-05H36.5022C36.7658 -0.00467604 37.0277 0.0437397 37.2721 0.142428C37.5166 0.241117 37.7386 0.388056 37.9251 0.574471C38.1115 0.760886 38.2584 0.982956 38.3571 1.22742C38.4558 1.47188 38.5042 1.73372 38.4995 1.99731V9.1278C38.5066 9.392 38.4597 9.65488 38.3618 9.90037C38.2639 10.1459 38.117 10.3688 37.9301 10.5556C37.7439 10.7434 37.521 10.8909 37.2754 10.9889C37.0297 11.0868 36.7666 11.1332 36.5022 11.125H11.5981V28.9075H30.1689C30.4317 28.9027 30.6928 28.9509 30.9367 29.049C31.1806 29.1472 31.4022 29.2933 31.5885 29.4788C31.7748 29.6643 31.9219 29.8853 32.0212 30.1287C32.1204 30.3722 32.1697 30.6331 32.1661 30.8959V37.6497C32.1709 37.9133 32.1224 38.1752 32.0238 38.4196C31.9251 38.6641 31.7781 38.8862 31.5917 39.0726C31.4053 39.259 31.1832 39.4059 30.9388 39.5046C30.6943 39.6033 30.4325 39.6517 30.1689 39.647H11.5981V65.979C11.6053 66.2432 11.5586 66.5062 11.4608 66.7518C11.363 66.9974 11.2162 67.2204 11.0292 67.4074C10.8423 67.5943 10.6192 67.7411 10.3736 67.8389C10.128 67.9368 9.86509 67.9835 9.60084 67.9762H1.99733C1.73445 67.9831 1.47295 67.9362 1.22889 67.8383C0.984844 67.7404 0.763416 67.5935 0.578238 67.4068V67.4068Z" fill="#F0EBE5"/>
<path d="M103.637 143.486C100.346 142.396 97.2252 140.845 94.3694 138.878C94.1983 138.763 94.0515 138.616 93.9372 138.445C93.823 138.274 93.7437 138.081 93.7037 137.879C93.5707 137.454 93.6052 136.993 93.8001 136.592L97.1288 130.609C97.2787 130.258 97.5313 129.96 97.8534 129.756C98.1754 129.551 98.5519 129.448 98.9333 129.461C99.435 129.461 99.9276 129.594 100.361 129.847C105.109 132.825 109.544 134.314 113.667 134.314C117.025 134.314 119.671 133.505 121.604 131.888C122.542 131.128 123.291 130.162 123.794 129.065C124.297 127.968 124.54 126.769 124.503 125.563C124.554 124 124.048 122.469 123.075 121.245C122.03 119.993 120.735 118.972 119.274 118.249C117.685 117.425 115.373 116.409 112.336 115.2L109.576 114.062C105.549 112.415 101.861 110.04 98.6968 107.054C95.7476 104.21 94.2877 100.028 94.3169 94.5096C94.2473 90.9099 95.1555 87.3587 96.9448 84.2344C98.6637 81.2809 101.185 78.8752 104.215 77.2966C107.536 75.5983 111.226 74.7495 114.955 74.8263C118.366 74.8376 121.753 75.3996 124.985 76.4907C128.204 77.5453 131.237 79.1003 133.973 81.0983C134.315 81.3324 134.554 81.6904 134.638 82.097C134.764 82.5236 134.729 82.9814 134.542 83.3847L131.406 89.3764C131.251 89.7249 130.996 90.0194 130.673 90.2223C130.35 90.4251 129.974 90.5271 129.593 90.5151C129.094 90.5161 128.604 90.383 128.174 90.1297C125.974 88.6806 123.591 87.5317 121.087 86.7134C119.139 86.064 117.104 85.7097 115.051 85.6622C112.582 85.5273 110.158 86.3636 108.298 87.9923C107.495 88.7869 106.863 89.7364 106.439 90.783C106.015 91.8296 105.808 92.9514 105.831 94.0804C105.854 95.2094 106.106 96.322 106.572 97.3505C107.038 98.379 107.709 99.302 108.543 100.063C110.347 101.681 113.247 103.313 117.241 104.96C117.811 105.153 119.974 106.029 123.75 107.588C127.28 108.988 130.361 111.327 132.659 114.351C134.891 117.394 136.057 121.089 135.979 124.862C136.045 128.559 135.074 132.201 133.175 135.374C131.283 138.466 128.548 140.955 125.292 142.548C121.685 144.314 117.709 145.193 113.694 145.115C110.276 145.117 106.88 144.567 103.637 143.486V143.486Z" fill="#F0EBE5"/>
<path d="M131.31 161.864C133.362 161.911 135.396 162.262 137.345 162.906C139.85 163.726 142.233 164.878 144.432 166.331C144.866 166.581 145.359 166.711 145.86 166.708C146.24 166.723 146.617 166.622 146.939 166.419C147.261 166.215 147.514 165.919 147.664 165.569L150.8 159.577C150.993 159.179 151.027 158.722 150.897 158.298C150.815 157.891 150.576 157.532 150.231 157.3C147.496 155.299 144.463 153.741 141.243 152.683C138.011 151.594 134.624 151.035 131.213 151.028L128.279 162.232C129.27 161.984 130.288 161.86 131.31 161.864V161.864Z" fill="#F0EBE5"/>
<path d="M148.996 190.57C146.683 187.52 143.573 185.168 140.008 183.772C136.241 182.222 134.069 181.346 133.5 181.144C129.505 179.497 126.606 177.865 124.801 176.247L124.608 176.063L121.446 188.038C122.881 188.875 124.368 189.621 125.896 190.272L128.647 191.411C131.695 192.608 134.011 193.621 135.593 194.45C137.052 195.179 138.346 196.198 139.395 197.446C140.364 198.676 140.87 200.208 140.823 201.774C140.856 202.979 140.611 204.177 140.109 205.273C139.606 206.369 138.858 207.336 137.923 208.098C135.99 209.71 133.342 210.516 129.978 210.516C125.89 210.516 121.461 209.03 116.69 206.057L113.799 216.998C115.756 218.081 117.808 218.982 119.931 219.687C123.194 220.787 126.614 221.349 130.057 221.352C134.073 221.436 138.05 220.555 141.655 218.785C144.911 217.19 147.645 214.702 149.539 211.611C151.435 208.437 152.406 204.796 152.342 201.099C152.415 197.317 151.239 193.616 148.996 190.57V190.57Z" fill="#F0EBE5"/>
<path d="M74.2043 40.2164C78.4543 38.969 82.1894 36.3858 84.8562 32.8494C87.2776 29.6334 88.6879 25.7699 88.9078 21.7503C89.1278 17.7306 88.1474 13.7364 86.0914 10.2754C84.2206 7.15555 81.5661 4.57954 78.3915 2.80324C75.1461 0.960763 71.4713 0.00883396 67.7396 0.0439039H49.9659C49.4277 0.0404128 48.8942 0.143841 48.3963 0.348189C47.8984 0.552536 47.446 0.853732 47.0655 1.2343C46.6849 1.61486 46.3837 2.06722 46.1794 2.56512C45.975 3.06302 45.8716 3.59655 45.8751 4.13474V47.3206L57.4731 65.9703V41.2588H62.1333L77.901 66.6623C78.1574 67.0856 78.5227 67.4324 78.9587 67.6665C79.3947 67.9007 79.8855 68.0137 80.38 67.9938H88.1675C88.7442 68.0145 89.3064 67.8103 89.7355 67.4244C89.9354 67.2449 90.0944 67.0245 90.2017 66.7781C90.309 66.5318 90.3621 66.2652 90.3574 65.9965C90.3466 65.528 90.217 65.0698 89.9807 64.665L74.2043 40.2164ZM57.4731 30.3266V10.9411H67.1702C68.4897 10.8918 69.8056 11.11 71.0386 11.5827C72.2716 12.0555 73.3961 12.7728 74.3445 13.6917C75.2689 14.6039 75.995 15.6972 76.4774 16.9031C76.9597 18.1089 77.1879 19.4014 77.1476 20.6995C77.1897 21.9809 76.9619 23.2569 76.479 24.4446C75.9961 25.6322 75.2688 26.7051 74.3445 27.5935C73.389 28.4996 72.2623 29.2057 71.0303 29.6705C69.7984 30.1353 68.486 30.3494 67.1702 30.3003L57.4731 30.3266Z" fill="#F0EBE5"/>
<path d="M170.948 163.984C170.91 163.948 170.88 163.904 170.861 163.856C170.841 163.807 170.832 163.755 170.834 163.703V162.407C170.831 162.355 170.84 162.303 170.86 162.254C170.879 162.206 170.909 162.162 170.948 162.127C170.984 162.089 171.027 162.059 171.076 162.04C171.124 162.02 171.176 162.011 171.228 162.013H172.822V152.754H171.202C171.15 152.756 171.098 152.746 171.049 152.727C171.001 152.707 170.957 152.677 170.921 152.64C170.883 152.604 170.853 152.561 170.834 152.512C170.814 152.464 170.805 152.412 170.808 152.359V151.072C170.805 151.018 170.814 150.965 170.834 150.915C170.854 150.865 170.883 150.82 170.921 150.783C170.997 150.712 171.098 150.674 171.202 150.678H176.677C176.729 150.674 176.782 150.681 176.832 150.7C176.882 150.718 176.927 150.747 176.964 150.784C177.001 150.822 177.03 150.867 177.049 150.916C177.067 150.966 177.075 151.019 177.071 151.072V152.359C177.073 152.411 177.065 152.462 177.047 152.51C177.029 152.558 177.001 152.602 176.966 152.64C176.928 152.678 176.883 152.707 176.833 152.727C176.783 152.747 176.73 152.756 176.677 152.754H175.082V162.004H176.677C176.73 162.002 176.783 162.011 176.833 162.03C176.883 162.05 176.928 162.08 176.966 162.118C177.001 162.155 177.029 162.199 177.047 162.247C177.065 162.296 177.073 162.347 177.071 162.398V163.695C177.074 163.798 177.036 163.899 176.966 163.975C176.887 164.048 176.784 164.088 176.677 164.089H171.202C171.107 164.085 171.017 164.047 170.948 163.984V163.984Z" fill="#F0EBE5"/>
<path d="M187.933 164.089C187.829 164.013 187.752 163.905 187.714 163.782L185.217 156.205L184.744 154.523L184.56 156.275L183.754 163.625C183.733 163.758 183.665 163.879 183.562 163.966C183.472 164.051 183.353 164.098 183.229 164.098H181.819C181.759 164.102 181.7 164.092 181.645 164.07C181.59 164.047 181.542 164.011 181.503 163.966C181.465 163.919 181.436 163.864 181.42 163.805C181.403 163.747 181.399 163.685 181.407 163.625L182.966 151.186C182.976 151.032 183.045 150.887 183.159 150.783C183.283 150.677 183.442 150.621 183.606 150.625H185.314C185.443 150.628 185.568 150.67 185.671 150.747C185.775 150.824 185.852 150.932 185.892 151.054L188.704 159.709L189.08 160.997L189.457 159.726L192.287 151.037C192.324 150.916 192.401 150.811 192.506 150.739C192.609 150.662 192.736 150.622 192.865 150.625H194.424C194.587 150.621 194.746 150.677 194.871 150.783C194.984 150.887 195.053 151.032 195.063 151.186L196.623 163.625C196.631 163.685 196.626 163.747 196.61 163.805C196.593 163.864 196.565 163.919 196.526 163.966C196.487 164.01 196.438 164.044 196.383 164.067C196.329 164.09 196.27 164.1 196.211 164.098H194.748C194.616 164.101 194.487 164.054 194.389 163.966C194.339 163.927 194.299 163.878 194.27 163.822C194.242 163.766 194.225 163.705 194.222 163.642L193.346 156.144L193.162 154.532L192.672 156.284L190.254 163.765C190.217 163.891 190.14 164.001 190.035 164.08C189.932 164.159 189.806 164.202 189.676 164.203H188.248C188.135 164.193 188.026 164.153 187.933 164.089V164.089Z" fill="#F0EBE5"/>
<path d="M201.073 163.984C201.029 163.944 200.995 163.895 200.972 163.841C200.949 163.786 200.939 163.727 200.942 163.668C200.936 163.619 200.936 163.569 200.942 163.519L205.015 151.01C205.047 150.887 205.125 150.78 205.234 150.713C205.338 150.636 205.464 150.596 205.593 150.599H207.117C207.249 150.595 207.378 150.635 207.485 150.713C207.589 150.785 207.666 150.89 207.704 151.01L211.769 163.519C211.779 163.569 211.779 163.619 211.769 163.668C211.771 163.727 211.761 163.786 211.738 163.841C211.715 163.895 211.681 163.944 211.637 163.984C211.548 164.063 211.433 164.107 211.313 164.106H209.964C209.831 164.108 209.702 164.064 209.596 163.984C209.492 163.906 209.417 163.795 209.386 163.668L208.51 160.97H204.13L203.254 163.668C203.216 163.794 203.139 163.904 203.035 163.984C202.93 164.064 202.8 164.108 202.667 164.106H201.353C201.248 164.099 201.149 164.056 201.073 163.984V163.984ZM207.862 158.85L206.329 153.84L204.787 158.85H207.862Z" fill="#F0EBE5"/>
<path d="M217.909 163.668C217.164 163.23 216.543 162.609 216.105 161.864C215.664 161.109 215.434 160.25 215.439 159.376V155.381C215.435 154.508 215.665 153.649 216.105 152.894C216.541 152.149 217.163 151.531 217.909 151.098C218.662 150.653 219.523 150.423 220.397 150.432C221.148 150.425 221.892 150.568 222.587 150.853C223.258 151.121 223.858 151.54 224.339 152.079C224.418 152.168 224.459 152.284 224.453 152.403C224.446 152.539 224.394 152.669 224.304 152.771L223.481 153.647C223.401 153.734 223.292 153.788 223.174 153.796C223.11 153.795 223.046 153.779 222.989 153.751C222.931 153.722 222.881 153.68 222.841 153.629C222.535 153.302 222.163 153.043 221.749 152.871C221.335 152.698 220.889 152.617 220.441 152.631C219.971 152.633 219.511 152.763 219.109 153.008C218.698 153.256 218.358 153.606 218.12 154.024C217.882 154.44 217.759 154.911 217.76 155.39V159.385C217.758 159.865 217.881 160.338 218.117 160.756C218.354 161.174 218.696 161.523 219.109 161.767C219.509 162.016 219.97 162.146 220.441 162.144C220.909 162.145 221.368 162.021 221.772 161.785C222.177 161.553 222.513 161.217 222.745 160.813C222.981 160.402 223.105 159.937 223.104 159.464V158.544H220.59C220.538 158.546 220.485 158.537 220.437 158.518C220.389 158.498 220.345 158.468 220.309 158.43C220.272 158.394 220.242 158.35 220.222 158.302C220.203 158.254 220.194 158.202 220.196 158.15V156.801C220.194 156.748 220.204 156.697 220.223 156.648C220.243 156.6 220.272 156.556 220.308 156.519C220.345 156.482 220.389 156.453 220.438 156.434C220.486 156.415 220.538 156.405 220.59 156.406H224.549C224.762 156.404 224.966 156.486 225.119 156.634C225.195 156.709 225.256 156.799 225.297 156.899C225.337 156.998 225.357 157.105 225.355 157.212V159.385C225.364 160.259 225.134 161.119 224.689 161.872C224.253 162.619 223.632 163.241 222.885 163.677C222.133 164.113 221.279 164.343 220.41 164.343C219.541 164.343 218.687 164.113 217.936 163.677L217.909 163.668Z" fill="#F0EBE5"/>
<path d="M229.288 163.984C229.25 163.948 229.221 163.904 229.201 163.856C229.181 163.807 229.172 163.756 229.174 163.703V162.407C229.173 162.355 229.182 162.303 229.202 162.255C229.221 162.206 229.25 162.162 229.287 162.126C229.324 162.089 229.368 162.06 229.416 162.04C229.464 162.021 229.516 162.012 229.568 162.013H231.163V152.754H229.568C229.516 152.755 229.464 152.745 229.416 152.726C229.368 152.707 229.324 152.678 229.287 152.641C229.25 152.604 229.221 152.56 229.202 152.512C229.182 152.463 229.173 152.412 229.174 152.359V151.072C229.172 151.018 229.181 150.965 229.201 150.915C229.22 150.865 229.25 150.82 229.288 150.783C229.325 150.747 229.369 150.72 229.418 150.702C229.466 150.684 229.517 150.675 229.568 150.678H235.043C235.095 150.675 235.146 150.684 235.194 150.702C235.242 150.72 235.286 150.747 235.324 150.783C235.362 150.82 235.391 150.865 235.411 150.915C235.43 150.965 235.44 151.018 235.437 151.072V152.359C235.439 152.412 235.429 152.463 235.41 152.512C235.39 152.56 235.361 152.604 235.325 152.641C235.288 152.678 235.244 152.707 235.195 152.726C235.147 152.745 235.095 152.755 235.043 152.754H233.449V162.004H235.043C235.095 162.003 235.147 162.012 235.195 162.032C235.244 162.051 235.288 162.08 235.325 162.117C235.361 162.154 235.39 162.198 235.41 162.246C235.429 162.294 235.439 162.346 235.437 162.398V163.695C235.439 163.747 235.43 163.799 235.411 163.847C235.391 163.895 235.361 163.939 235.324 163.975C235.287 164.012 235.243 164.041 235.195 164.061C235.147 164.08 235.095 164.09 235.043 164.089H229.568C229.517 164.091 229.466 164.083 229.418 164.065C229.369 164.047 229.325 164.019 229.288 163.984Z" fill="#F0EBE5"/>
<path d="M240.404 163.984C240.334 163.908 240.296 163.807 240.299 163.703V151.221C240.284 151.086 240.322 150.951 240.404 150.844C240.454 150.792 240.514 150.752 240.58 150.725C240.647 150.697 240.718 150.684 240.79 150.686H242.323C242.425 150.683 242.526 150.708 242.615 150.757C242.704 150.806 242.779 150.879 242.831 150.967L247.333 158.579L248.209 160.156V151.072C248.207 151.018 248.216 150.965 248.236 150.915C248.255 150.865 248.285 150.82 248.323 150.783C248.36 150.747 248.404 150.72 248.453 150.702C248.501 150.684 248.552 150.675 248.603 150.678H250.04C250.144 150.674 250.244 150.712 250.32 150.783C250.358 150.82 250.388 150.865 250.408 150.915C250.427 150.965 250.436 151.018 250.434 151.072V163.546C250.435 163.616 250.422 163.686 250.395 163.751C250.368 163.815 250.327 163.874 250.276 163.922C250.227 163.976 250.168 164.018 250.101 164.047C250.035 164.075 249.963 164.09 249.891 164.089H248.288C248.186 164.09 248.086 164.065 247.997 164.016C247.908 163.967 247.833 163.895 247.78 163.809L243.128 155.925L242.401 154.655V163.695C242.403 163.748 242.394 163.801 242.374 163.851C242.355 163.901 242.325 163.946 242.287 163.984C242.211 164.053 242.11 164.09 242.007 164.089H240.649C240.558 164.081 240.472 164.044 240.404 163.984V163.984Z" fill="#F0EBE5"/>
<path d="M254.945 163.984C254.902 163.944 254.867 163.895 254.845 163.841C254.822 163.786 254.812 163.727 254.814 163.668C254.809 163.619 254.809 163.569 254.814 163.519L258.887 151.01C258.923 150.888 259 150.783 259.106 150.713C259.21 150.636 259.337 150.596 259.466 150.599H260.928C261.06 150.595 261.19 150.635 261.296 150.713C261.402 150.783 261.48 150.888 261.515 151.01L265.58 163.519C265.59 163.569 265.59 163.619 265.58 163.668C265.582 163.727 265.572 163.786 265.549 163.841C265.527 163.895 265.492 163.944 265.448 163.984C265.359 164.063 265.244 164.107 265.124 164.106H263.775C263.642 164.108 263.513 164.064 263.407 163.984C263.303 163.906 263.229 163.795 263.197 163.668L262.321 160.97H257.941L257.065 163.668C257.03 163.795 256.953 163.907 256.846 163.984C256.741 164.064 256.611 164.108 256.478 164.106H255.296C255.232 164.111 255.168 164.103 255.108 164.081C255.048 164.06 254.992 164.027 254.945 163.984V163.984ZM261.734 158.85L260.201 153.84L258.66 158.85H261.734Z" fill="#F0EBE5"/>
<path d="M270.126 163.984C270.088 163.948 270.059 163.904 270.039 163.856C270.019 163.807 270.01 163.755 270.012 163.703V151.483C270.009 151.377 270.027 151.27 270.066 151.171C270.105 151.071 270.164 150.981 270.24 150.905C270.316 150.83 270.406 150.771 270.505 150.731C270.605 150.692 270.711 150.674 270.818 150.677H274.322C275.059 150.668 275.784 150.855 276.424 151.221C277.054 151.568 277.578 152.079 277.94 152.701C278.349 153.382 278.546 154.169 278.503 154.962C278.461 155.755 278.183 156.518 277.703 157.151C277.176 157.848 276.439 158.358 275.601 158.605L278.711 163.432C278.761 163.51 278.788 163.601 278.79 163.695C278.79 163.747 278.779 163.799 278.758 163.848C278.737 163.896 278.706 163.939 278.667 163.975C278.582 164.049 278.473 164.09 278.36 164.089H276.819C276.721 164.092 276.624 164.07 276.538 164.024C276.452 163.978 276.379 163.909 276.328 163.826L273.218 158.815H272.342V163.695C272.344 163.747 272.335 163.799 272.316 163.847C272.296 163.895 272.266 163.939 272.228 163.975C272.192 164.012 272.148 164.041 272.1 164.06C272.052 164.08 272 164.09 271.948 164.089H270.45C270.392 164.097 270.332 164.092 270.276 164.074C270.22 164.056 270.168 164.025 270.126 163.984ZM274.208 156.669C274.468 156.678 274.727 156.635 274.971 156.543C275.214 156.452 275.437 156.313 275.627 156.135C275.809 155.958 275.952 155.745 276.047 155.51C276.142 155.274 276.187 155.022 276.179 154.768C276.188 154.512 276.143 154.257 276.048 154.018C275.953 153.78 275.81 153.564 275.627 153.384C275.439 153.204 275.216 153.062 274.973 152.969C274.729 152.876 274.469 152.832 274.208 152.841H272.299V156.669H274.208Z" fill="#F0EBE5"/>
<path d="M171.342 189.773C171.304 189.737 171.274 189.693 171.255 189.645C171.235 189.596 171.226 189.544 171.228 189.492V177.281C171.226 177.174 171.246 177.067 171.286 176.968C171.327 176.868 171.388 176.778 171.464 176.703C171.617 176.555 171.821 176.473 172.034 176.475H175.538C176.265 176.467 176.982 176.649 177.616 177.004C178.251 177.359 178.782 177.875 179.155 178.499C179.56 179.181 179.753 179.969 179.709 180.761C179.666 181.553 179.387 182.315 178.91 182.949C178.387 183.65 177.648 184.16 176.808 184.403L179.926 189.229C179.97 189.31 179.994 189.4 179.996 189.492C179.998 189.545 179.989 189.598 179.967 189.646C179.946 189.695 179.914 189.738 179.874 189.773C179.789 189.847 179.68 189.888 179.567 189.886H178.034C177.938 189.889 177.842 189.867 177.758 189.82C177.673 189.774 177.602 189.706 177.552 189.624L174.434 184.613H173.514V189.492C173.517 189.596 173.48 189.697 173.409 189.773C173.33 189.845 173.227 189.886 173.12 189.886H171.622C171.517 189.886 171.417 189.845 171.342 189.773V189.773ZM175.433 182.458C175.957 182.472 176.467 182.281 176.852 181.924C177.033 181.747 177.176 181.534 177.271 181.298C177.366 181.063 177.411 180.811 177.403 180.557C177.412 180.301 177.367 180.046 177.272 179.807C177.177 179.569 177.034 179.353 176.852 179.173C176.662 178.994 176.44 178.853 176.196 178.76C175.953 178.667 175.693 178.623 175.433 178.63H173.514V182.458H175.433Z" fill="#F0EBE5"/>
<path d="M184.841 189.65C184.765 189.576 184.704 189.488 184.664 189.39C184.623 189.292 184.603 189.187 184.604 189.081V177.281C184.603 177.175 184.623 177.07 184.663 176.971C184.703 176.873 184.762 176.784 184.837 176.709C184.913 176.634 185.002 176.574 185.1 176.534C185.198 176.494 185.304 176.474 185.41 176.475H191.805C191.856 176.473 191.907 176.481 191.955 176.499C192.004 176.517 192.048 176.545 192.085 176.58C192.123 176.618 192.153 176.663 192.172 176.713C192.192 176.763 192.201 176.816 192.199 176.869V178.271C192.2 178.323 192.191 178.375 192.171 178.423C192.152 178.472 192.123 178.515 192.086 178.552C192.049 178.589 192.005 178.618 191.957 178.638C191.909 178.657 191.857 178.666 191.805 178.665H186.89V181.854H190.552C190.604 181.852 190.656 181.861 190.704 181.88C190.753 181.9 190.796 181.93 190.832 181.968C190.905 182.043 190.946 182.143 190.946 182.248V183.579C190.947 183.631 190.937 183.683 190.918 183.731C190.898 183.779 190.869 183.823 190.832 183.86C190.796 183.897 190.753 183.927 190.704 183.947C190.656 183.966 190.604 183.976 190.552 183.974H186.89V187.688H191.805C191.857 187.685 191.909 187.694 191.957 187.714C192.006 187.733 192.049 187.763 192.085 187.802C192.123 187.838 192.152 187.881 192.172 187.93C192.192 187.978 192.201 188.03 192.199 188.082V189.492C192.201 189.544 192.192 189.596 192.172 189.645C192.152 189.693 192.123 189.737 192.085 189.773C192.048 189.809 192.005 189.839 191.956 189.858C191.908 189.878 191.857 189.887 191.805 189.886H185.41C185.304 189.888 185.199 189.868 185.101 189.828C185.003 189.787 184.914 189.726 184.841 189.65V189.65Z" fill="#F0EBE5"/>
<path d="M198.304 189.781C197.657 189.574 197.041 189.279 196.474 188.905C196.407 188.86 196.36 188.791 196.342 188.713C196.31 188.631 196.31 188.54 196.342 188.459L196.999 187.276C197.028 187.207 197.076 187.148 197.139 187.108C197.201 187.067 197.275 187.046 197.35 187.048C197.449 187.047 197.546 187.074 197.63 187.127C198.406 187.661 199.317 187.964 200.258 188.003C200.82 188.035 201.375 187.867 201.826 187.53C202.01 187.378 202.157 187.187 202.255 186.969C202.354 186.752 202.402 186.516 202.395 186.277C202.414 185.961 202.314 185.649 202.115 185.401C201.91 185.154 201.657 184.951 201.37 184.806C201.055 184.648 200.599 184.447 199.995 184.21L199.452 183.982C198.657 183.658 197.929 183.189 197.306 182.598C196.997 182.267 196.76 181.876 196.61 181.45C196.459 181.023 196.398 180.57 196.43 180.119C196.417 179.411 196.596 178.712 196.947 178.096C197.288 177.512 197.785 177.036 198.383 176.72C199.04 176.388 199.768 176.223 200.503 176.239C201.176 176.239 201.845 176.348 202.483 176.563C203.108 176.763 203.699 177.058 204.235 177.439C204.303 177.486 204.351 177.558 204.366 177.64C204.397 177.719 204.397 177.807 204.366 177.885L203.744 179.068C203.717 179.138 203.668 179.197 203.606 179.238C203.543 179.279 203.469 179.299 203.394 179.296C203.296 179.295 203.2 179.271 203.114 179.226C202.679 178.937 202.207 178.707 201.712 178.542C201.326 178.419 200.925 178.351 200.521 178.341C200.034 178.313 199.556 178.477 199.189 178.796C199.027 178.95 198.898 179.134 198.809 179.339C198.721 179.544 198.675 179.765 198.675 179.988C198.675 180.211 198.721 180.432 198.809 180.637C198.898 180.841 199.027 181.026 199.189 181.179C199.717 181.595 200.309 181.923 200.941 182.151C201.055 182.151 201.484 182.362 202.229 182.66C202.927 182.938 203.533 183.405 203.981 184.009C204.423 184.609 204.654 185.339 204.638 186.085C204.651 186.815 204.46 187.534 204.086 188.161C203.714 188.768 203.18 189.259 202.544 189.58C201.829 189.924 201.043 190.095 200.249 190.079C199.589 190.083 198.933 189.982 198.304 189.781Z" fill="#F0EBE5"/>
<path d="M209.009 189.773C208.971 189.737 208.942 189.693 208.922 189.645C208.902 189.596 208.893 189.544 208.895 189.492V188.196C208.894 188.144 208.903 188.092 208.923 188.044C208.942 187.995 208.971 187.951 209.008 187.914C209.045 187.878 209.089 187.849 209.137 187.829C209.186 187.81 209.237 187.8 209.29 187.802H210.884V178.551H209.29C209.237 178.552 209.186 178.543 209.137 178.524C209.089 178.504 209.045 178.475 209.008 178.438C208.971 178.402 208.942 178.358 208.923 178.309C208.903 178.261 208.894 178.209 208.895 178.157V176.869C208.893 176.816 208.902 176.763 208.922 176.713C208.941 176.663 208.971 176.618 209.009 176.58C209.047 176.545 209.091 176.517 209.139 176.499C209.187 176.481 209.238 176.473 209.29 176.475H214.764C214.816 176.473 214.867 176.481 214.915 176.499C214.963 176.517 215.007 176.545 215.045 176.58C215.083 176.618 215.112 176.663 215.132 176.713C215.152 176.763 215.161 176.816 215.159 176.869V178.157C215.16 178.209 215.15 178.261 215.131 178.309C215.112 178.358 215.083 178.402 215.046 178.438C215.009 178.475 214.965 178.504 214.917 178.524C214.868 178.543 214.816 178.552 214.764 178.551H213.17V187.802H214.764C214.816 187.8 214.868 187.81 214.917 187.829C214.965 187.849 215.009 187.878 215.046 187.914C215.083 187.951 215.112 187.995 215.131 188.044C215.15 188.092 215.16 188.144 215.159 188.196V189.492C215.161 189.544 215.151 189.596 215.132 189.645C215.112 189.693 215.082 189.737 215.045 189.773C215.008 189.809 214.964 189.839 214.916 189.858C214.868 189.878 214.816 189.887 214.764 189.886H209.29C209.238 189.887 209.186 189.878 209.138 189.858C209.09 189.839 209.046 189.809 209.009 189.773V189.773Z" fill="#F0EBE5"/>
<path d="M221.212 189.781C220.564 189.576 219.947 189.281 219.381 188.905C219.314 188.86 219.267 188.791 219.249 188.713C219.218 188.631 219.218 188.54 219.249 188.459L219.906 187.276C219.937 187.207 219.988 187.149 220.052 187.108C220.116 187.068 220.19 187.047 220.266 187.048C220.364 187.049 220.461 187.076 220.546 187.127C221.322 187.661 222.233 187.964 223.174 188.003C223.736 188.033 224.29 187.866 224.742 187.53C224.926 187.378 225.073 187.187 225.171 186.97C225.27 186.753 225.318 186.516 225.311 186.277C225.326 185.961 225.226 185.651 225.031 185.402C224.823 185.154 224.567 184.951 224.278 184.806C223.962 184.648 223.507 184.447 222.911 184.21L222.368 183.982C221.573 183.658 220.845 183.189 220.222 182.598C219.913 182.267 219.676 181.877 219.526 181.45C219.375 181.024 219.314 180.571 219.346 180.119C219.333 179.411 219.512 178.712 219.863 178.096C220.204 177.512 220.701 177.036 221.299 176.721C221.955 176.387 222.683 176.222 223.419 176.239C224.092 176.239 224.761 176.349 225.399 176.563C226.024 176.765 226.614 177.06 227.151 177.439C227.219 177.486 227.267 177.558 227.282 177.64C227.313 177.719 227.313 177.807 227.282 177.886L226.66 179.068C226.632 179.139 226.583 179.2 226.518 179.241C226.453 179.282 226.377 179.301 226.301 179.296C226.203 179.295 226.107 179.271 226.021 179.226C225.589 178.937 225.121 178.707 224.628 178.543C224.242 178.419 223.841 178.352 223.437 178.341C222.95 178.313 222.472 178.477 222.105 178.797C221.945 178.946 221.818 179.129 221.734 179.331C221.649 179.533 221.609 179.751 221.615 179.97C221.608 180.199 221.652 180.426 221.745 180.635C221.837 180.845 221.975 181.03 222.149 181.179C222.677 181.595 223.269 181.923 223.901 182.152C224.015 182.152 224.444 182.362 225.189 182.66C225.886 182.938 226.493 183.405 226.941 184.009C227.383 184.609 227.614 185.339 227.598 186.085C227.611 186.815 227.42 187.534 227.046 188.161C226.672 188.77 226.135 189.262 225.495 189.58C224.783 189.924 224 190.095 223.209 190.079C222.531 190.088 221.857 189.988 221.212 189.781V189.781Z" fill="#F0EBE5"/>
<path d="M235.044 189.773C234.971 189.697 234.93 189.597 234.93 189.492V178.665H231.785C231.731 178.667 231.678 178.658 231.628 178.639C231.579 178.619 231.533 178.589 231.496 178.551C231.46 178.514 231.433 178.47 231.415 178.422C231.397 178.374 231.389 178.322 231.391 178.271V176.869C231.387 176.817 231.394 176.764 231.413 176.714C231.431 176.664 231.46 176.619 231.497 176.582C231.535 176.544 231.58 176.516 231.629 176.497C231.679 176.479 231.732 176.471 231.785 176.475H240.405C240.456 176.473 240.507 176.481 240.555 176.499C240.603 176.517 240.647 176.545 240.685 176.58C240.723 176.618 240.753 176.663 240.772 176.713C240.792 176.763 240.801 176.816 240.799 176.869V178.271C240.8 178.323 240.791 178.375 240.771 178.423C240.752 178.472 240.723 178.515 240.686 178.552C240.649 178.589 240.605 178.618 240.557 178.638C240.508 178.657 240.457 178.666 240.405 178.665H237.26V189.492C237.26 189.597 237.219 189.697 237.146 189.773C237.07 189.844 236.97 189.885 236.866 189.886H235.324C235.219 189.886 235.119 189.845 235.044 189.773V189.773Z" fill="#F0EBE5"/>
<path d="M244.968 189.773C244.931 189.737 244.901 189.693 244.881 189.645C244.862 189.596 244.852 189.544 244.854 189.492V188.196C244.852 188.144 244.861 188.091 244.88 188.043C244.9 187.995 244.93 187.951 244.968 187.915C245.004 187.878 245.048 187.848 245.096 187.828C245.145 187.809 245.197 187.8 245.249 187.802H246.843V178.551H245.249C245.197 178.553 245.145 178.544 245.096 178.524C245.048 178.505 245.004 178.475 244.968 178.437C244.93 178.402 244.9 178.358 244.88 178.31C244.861 178.261 244.852 178.209 244.854 178.157V176.869C244.852 176.816 244.861 176.763 244.881 176.713C244.901 176.663 244.93 176.618 244.968 176.58C245.044 176.51 245.145 176.472 245.249 176.475H250.724C250.775 176.473 250.826 176.481 250.874 176.499C250.922 176.517 250.966 176.545 251.004 176.58C251.042 176.618 251.072 176.663 251.091 176.713C251.111 176.763 251.12 176.816 251.118 176.869V178.157C251.119 178.209 251.11 178.261 251.09 178.309C251.071 178.358 251.042 178.402 251.005 178.438C250.968 178.475 250.924 178.504 250.876 178.524C250.827 178.543 250.776 178.552 250.724 178.551H249.164V187.802H250.759C250.811 187.8 250.862 187.81 250.911 187.829C250.959 187.849 251.003 187.878 251.04 187.914C251.077 187.951 251.106 187.995 251.125 188.044C251.145 188.092 251.154 188.144 251.153 188.196V189.492C251.155 189.544 251.146 189.596 251.126 189.645C251.106 189.693 251.077 189.737 251.039 189.773C251.002 189.809 250.959 189.839 250.91 189.858C250.862 189.878 250.811 189.887 250.759 189.886H245.284C245.226 189.891 245.168 189.884 245.114 189.864C245.059 189.844 245.01 189.813 244.968 189.773V189.773Z" fill="#F0EBE5"/>
<path d="M256.058 189.772C256.02 189.736 255.991 189.693 255.971 189.645C255.951 189.596 255.942 189.544 255.944 189.492V177.281C255.941 177.174 255.959 177.068 255.998 176.968C256.037 176.869 256.097 176.779 256.172 176.703C256.248 176.627 256.338 176.568 256.438 176.529C256.537 176.49 256.643 176.471 256.75 176.475H260.254C260.991 176.466 261.717 176.653 262.356 177.018C262.986 177.365 263.51 177.877 263.872 178.499C264.281 179.179 264.478 179.967 264.436 180.76C264.393 181.553 264.115 182.315 263.635 182.949C263.108 183.646 262.371 184.156 261.533 184.403L264.643 189.229C264.693 189.308 264.72 189.399 264.722 189.492C264.722 189.545 264.711 189.597 264.69 189.645C264.669 189.694 264.638 189.737 264.599 189.772C264.514 189.847 264.405 189.888 264.292 189.886H262.751C262.653 189.89 262.556 189.867 262.47 189.821C262.384 189.775 262.311 189.707 262.26 189.624L259.15 184.613H258.274V189.492C258.276 189.544 258.267 189.596 258.248 189.645C258.228 189.693 258.198 189.736 258.161 189.772C258.124 189.809 258.08 189.838 258.032 189.858C257.984 189.878 257.932 189.887 257.88 189.886H256.382C256.323 189.894 256.263 189.887 256.207 189.868C256.151 189.848 256.1 189.815 256.058 189.772V189.772ZM260.14 182.458C260.4 182.467 260.66 182.424 260.903 182.332C261.147 182.24 261.37 182.102 261.559 181.924C261.741 181.747 261.884 181.534 261.979 181.298C262.074 181.063 262.119 180.811 262.111 180.557C262.12 180.301 262.075 180.046 261.98 179.807C261.885 179.569 261.742 179.353 261.559 179.173C261.371 178.992 261.149 178.851 260.905 178.758C260.661 178.665 260.401 178.621 260.14 178.63H258.231V182.458H260.14Z" fill="#F0EBE5"/>
<path d="M170.457 215.562C170.414 215.522 170.379 215.473 170.356 215.418C170.334 215.364 170.323 215.305 170.326 215.246C170.316 215.197 170.316 215.146 170.326 215.097L174.39 202.588C174.426 202.466 174.503 202.36 174.609 202.29C174.716 202.213 174.845 202.173 174.977 202.177H176.458C176.587 202.174 176.713 202.214 176.817 202.29C176.923 202.36 177.001 202.466 177.036 202.588L181.109 215.097C181.114 215.147 181.114 215.197 181.109 215.246C181.112 215.305 181.101 215.364 181.078 215.418C181.056 215.473 181.021 215.522 180.978 215.562C180.89 215.643 180.773 215.687 180.654 215.684H179.305C179.172 215.682 179.044 215.639 178.937 215.562C178.832 215.484 178.758 215.372 178.726 215.246L177.85 212.548H173.471L172.595 215.246C172.563 215.375 172.485 215.487 172.376 215.562C172.272 215.64 172.146 215.684 172.016 215.684H170.702C170.61 215.669 170.525 215.626 170.457 215.562V215.562ZM177.255 210.428L175.713 205.418L174.171 210.411L177.255 210.428Z" fill="#F0EBE5"/>
<path d="M185.638 215.57C185.6 215.534 185.571 215.491 185.551 215.442C185.531 215.394 185.522 215.342 185.524 215.29V203.079C185.523 202.973 185.543 202.867 185.583 202.769C185.623 202.671 185.683 202.581 185.758 202.506C185.833 202.431 185.922 202.372 186.02 202.332C186.119 202.292 186.224 202.272 186.33 202.273H189.668C190.431 202.271 191.183 202.469 191.846 202.847C192.51 203.225 193.064 203.77 193.452 204.428C193.841 205.079 194.044 205.824 194.039 206.583C194.046 207.35 193.843 208.104 193.452 208.764C193.065 209.416 192.516 209.956 191.858 210.332C191.194 210.722 190.437 210.925 189.668 210.919H187.846V215.299C187.848 215.351 187.838 215.403 187.819 215.451C187.799 215.499 187.769 215.543 187.732 215.579C187.695 215.616 187.651 215.645 187.603 215.665C187.555 215.684 187.503 215.694 187.451 215.693H185.918C185.866 215.693 185.814 215.682 185.766 215.66C185.717 215.639 185.674 215.609 185.638 215.57V215.57ZM189.571 208.764C189.858 208.767 190.143 208.712 190.408 208.602C190.673 208.492 190.913 208.33 191.113 208.124C191.32 207.925 191.483 207.685 191.593 207.42C191.703 207.155 191.757 206.87 191.752 206.583C191.756 206.3 191.701 206.019 191.591 205.758C191.481 205.497 191.318 205.262 191.113 205.067C190.914 204.861 190.674 204.697 190.409 204.587C190.143 204.477 189.858 204.423 189.571 204.428H187.819V208.764H189.571Z" fill="#F0EBE5"/>
<path d="M198.725 215.57C198.655 215.494 198.617 215.394 198.62 215.29V203.079C198.616 202.972 198.635 202.865 198.674 202.766C198.713 202.667 198.772 202.576 198.848 202.501C199.003 202.351 199.211 202.269 199.426 202.273H202.93C203.667 202.263 204.392 202.451 205.032 202.816C205.66 203.165 206.184 203.677 206.548 204.296C206.957 204.977 207.153 205.764 207.111 206.558C207.069 207.351 206.79 208.113 206.311 208.746C205.784 209.444 205.047 209.953 204.209 210.2L207.319 215.027C207.368 215.106 207.396 215.197 207.397 215.29C207.398 215.343 207.387 215.395 207.366 215.443C207.345 215.491 207.314 215.535 207.275 215.57C207.188 215.646 207.075 215.687 206.959 215.684H205.426C205.329 215.688 205.232 215.665 205.146 215.619C205.059 215.573 204.987 215.505 204.936 215.421L201.861 210.411H200.985V215.29C200.986 215.342 200.977 215.394 200.958 215.442C200.938 215.491 200.909 215.534 200.872 215.571C200.836 215.608 200.792 215.637 200.743 215.657C200.695 215.676 200.643 215.685 200.591 215.684H199.093C199.027 215.695 198.96 215.691 198.896 215.671C198.832 215.651 198.773 215.617 198.725 215.57V215.57ZM202.816 208.256C203.076 208.264 203.335 208.222 203.579 208.13C203.822 208.038 204.045 207.899 204.235 207.721C204.417 207.544 204.56 207.331 204.655 207.096C204.75 206.861 204.795 206.608 204.787 206.355C204.796 206.099 204.751 205.843 204.656 205.605C204.561 205.367 204.418 205.151 204.235 204.971C204.047 204.79 203.824 204.649 203.581 204.556C203.337 204.462 203.077 204.419 202.816 204.428H200.906V208.256H202.816Z" fill="#F0EBE5"/>
<path d="M212.224 215.448C212.148 215.374 212.088 215.285 212.047 215.187C212.006 215.089 211.986 214.984 211.987 214.878V203.079C211.985 202.971 212.005 202.865 212.046 202.765C212.087 202.666 212.147 202.576 212.224 202.501C212.376 202.353 212.581 202.271 212.793 202.273H219.197C219.3 202.271 219.4 202.309 219.477 202.378C219.55 202.457 219.59 202.56 219.591 202.667V204.069C219.592 204.121 219.582 204.172 219.563 204.22C219.543 204.268 219.514 204.312 219.477 204.349C219.44 204.386 219.397 204.415 219.349 204.434C219.3 204.454 219.249 204.464 219.197 204.463H214.283V207.651H217.935C217.988 207.649 218.04 207.658 218.088 207.677C218.137 207.697 218.18 207.727 218.216 207.765C218.253 207.801 218.283 207.845 218.303 207.893C218.322 207.941 218.332 207.993 218.33 208.045V209.377C218.331 209.429 218.321 209.481 218.302 209.529C218.283 209.578 218.254 209.622 218.217 209.658C218.18 209.695 218.136 209.724 218.088 209.744C218.039 209.763 217.987 209.772 217.935 209.771H214.283V213.485H219.197C219.249 213.484 219.3 213.494 219.349 213.514C219.397 213.533 219.44 213.562 219.477 213.599C219.55 213.674 219.591 213.775 219.591 213.879V215.29C219.591 215.395 219.55 215.495 219.477 215.57C219.401 215.642 219.301 215.682 219.197 215.684H212.793C212.687 215.685 212.582 215.665 212.484 215.624C212.386 215.584 212.298 215.524 212.224 215.448V215.448Z" fill="#F0EBE5"/>
<path d="M224.54 215.57C224.503 215.534 224.473 215.491 224.453 215.442C224.434 215.394 224.425 215.342 224.427 215.29V202.816C224.425 202.744 224.439 202.673 224.465 202.607C224.492 202.54 224.532 202.48 224.583 202.429C224.634 202.379 224.694 202.339 224.76 202.312C224.827 202.285 224.898 202.272 224.97 202.273H226.511C226.613 202.271 226.714 202.295 226.803 202.345C226.892 202.394 226.967 202.466 227.019 202.553L231.513 210.165L232.389 211.742V202.667C232.39 202.56 232.43 202.457 232.503 202.378C232.579 202.307 232.68 202.27 232.783 202.273H234.132C234.185 202.269 234.238 202.276 234.288 202.295C234.337 202.313 234.382 202.342 234.42 202.379C234.457 202.417 234.486 202.462 234.505 202.512C234.523 202.561 234.531 202.614 234.527 202.667V215.141C234.524 215.284 234.466 215.421 234.365 215.522C234.264 215.624 234.127 215.682 233.983 215.684H232.433C232.331 215.686 232.23 215.661 232.141 215.612C232.052 215.563 231.977 215.491 231.925 215.404L227.273 207.52L226.538 206.25V215.29C226.541 215.343 226.532 215.397 226.513 215.447C226.493 215.497 226.463 215.542 226.424 215.579C226.386 215.614 226.342 215.642 226.294 215.66C226.246 215.678 226.195 215.686 226.143 215.684H224.794C224.699 215.679 224.608 215.638 224.54 215.57Z" fill="#F0EBE5"/>
<path d="M240.028 215.448C239.952 215.374 239.891 215.285 239.851 215.187C239.81 215.089 239.79 214.984 239.791 214.878V203.079C239.79 202.973 239.81 202.867 239.85 202.769C239.89 202.671 239.949 202.581 240.025 202.506C240.1 202.431 240.189 202.372 240.287 202.332C240.386 202.292 240.491 202.272 240.597 202.273H244.276C245.199 202.258 246.108 202.497 246.904 202.965C247.683 203.421 248.33 204.074 248.779 204.857C249.233 205.658 249.468 206.564 249.462 207.485V210.411C249.468 211.331 249.233 212.238 248.779 213.039C248.331 213.837 247.679 214.501 246.889 214.963C246.099 215.425 245.2 215.668 244.285 215.667H240.606C240.499 215.673 240.393 215.657 240.293 215.619C240.194 215.581 240.103 215.523 240.028 215.448ZM244.18 213.485C244.704 213.49 245.219 213.351 245.669 213.082C246.119 212.821 246.493 212.446 246.755 211.996C247.025 211.54 247.164 211.019 247.158 210.49V207.45C247.163 206.923 247.023 206.405 246.755 205.952C246.493 205.502 246.119 205.128 245.669 204.866C245.219 204.597 244.704 204.458 244.18 204.463H242.077V213.485H244.18Z" fill="#F0EBE5"/>
<path d="M254.508 215.448C254.432 215.374 254.371 215.285 254.331 215.187C254.29 215.089 254.27 214.984 254.271 214.878V203.079C254.27 202.973 254.29 202.867 254.33 202.769C254.37 202.671 254.429 202.581 254.504 202.506C254.58 202.431 254.669 202.372 254.767 202.332C254.866 202.292 254.971 202.272 255.077 202.273H261.472C261.523 202.271 261.574 202.279 261.622 202.297C261.671 202.315 261.715 202.343 261.752 202.378C261.79 202.416 261.82 202.461 261.839 202.51C261.859 202.56 261.868 202.614 261.866 202.667V204.069C261.867 204.121 261.858 204.172 261.838 204.221C261.819 204.269 261.79 204.313 261.753 204.35C261.716 204.387 261.672 204.416 261.624 204.435C261.576 204.455 261.524 204.464 261.472 204.463H256.557V207.651H260.219C260.271 207.65 260.323 207.659 260.371 207.679C260.42 207.698 260.464 207.727 260.5 207.764C260.537 207.801 260.566 207.845 260.586 207.893C260.605 207.942 260.614 207.993 260.613 208.045V209.377C260.616 209.429 260.607 209.481 260.587 209.53C260.568 209.578 260.538 209.622 260.499 209.657C260.463 209.695 260.42 209.725 260.371 209.744C260.323 209.764 260.271 209.773 260.219 209.771H256.557V213.485H261.472C261.524 213.483 261.576 213.492 261.624 213.511C261.673 213.531 261.716 213.561 261.752 213.599C261.79 213.635 261.819 213.679 261.839 213.727C261.859 213.775 261.868 213.827 261.866 213.88V215.29C261.868 215.342 261.859 215.394 261.839 215.442C261.819 215.491 261.79 215.534 261.752 215.57C261.715 215.607 261.672 215.636 261.623 215.656C261.575 215.675 261.524 215.685 261.472 215.684H255.077C254.971 215.686 254.866 215.666 254.768 215.625C254.67 215.585 254.581 215.524 254.508 215.448V215.448Z" fill="#F0EBE5"/>
<path d="M266.824 215.57C266.786 215.534 266.757 215.491 266.737 215.442C266.717 215.394 266.708 215.342 266.71 215.29V203.079C266.709 202.973 266.729 202.867 266.769 202.769C266.809 202.671 266.869 202.581 266.944 202.506C267.019 202.431 267.108 202.372 267.206 202.332C267.305 202.292 267.41 202.272 267.516 202.273H271.02C271.757 202.263 272.483 202.451 273.122 202.816C273.753 203.165 274.279 203.676 274.647 204.296C275.016 204.913 275.21 205.619 275.207 206.337C275.217 207.208 274.933 208.057 274.401 208.746C273.874 209.444 273.137 209.953 272.299 210.2L275.409 215.027C275.459 215.106 275.486 215.197 275.488 215.29C275.488 215.343 275.477 215.395 275.456 215.443C275.435 215.491 275.404 215.535 275.365 215.57C275.28 215.645 275.171 215.685 275.058 215.684H273.517C273.419 215.688 273.322 215.665 273.236 215.619C273.15 215.573 273.077 215.505 273.026 215.421L269.916 210.411H268.997V215.29C268.999 215.342 268.989 215.394 268.97 215.442C268.95 215.491 268.92 215.534 268.883 215.57C268.846 215.607 268.802 215.636 268.754 215.656C268.706 215.675 268.654 215.685 268.602 215.684H267.104C267.052 215.685 267.001 215.675 266.953 215.656C266.904 215.636 266.861 215.607 266.824 215.57V215.57ZM270.906 208.256C271.166 208.264 271.425 208.222 271.669 208.13C271.912 208.038 272.135 207.899 272.325 207.721C272.507 207.544 272.65 207.331 272.745 207.096C272.84 206.861 272.885 206.608 272.877 206.355C272.886 206.099 272.841 205.843 272.746 205.605C272.651 205.367 272.508 205.151 272.325 204.971C272.137 204.79 271.914 204.649 271.671 204.556C271.427 204.462 271.167 204.419 270.906 204.428H268.997V208.256H270.906Z" fill="#F0EBE5"/>
<path d="M274.629 77.2615H151.317V78.0499C177.596 78.0499 203.14 102.717 203.14 129.89H203.928V81.6414C203.926 81.3112 203.888 80.9822 203.814 80.6603C224.05 87.6681 240.676 107.973 240.676 129.899H241.464V81.6414C241.466 81.3109 241.428 80.9815 241.35 80.6603C261.594 87.6681 278.212 107.973 278.212 129.899H279.009V81.6414C279.009 80.4798 278.547 79.3657 277.726 78.5443C276.904 77.7229 275.79 77.2615 274.629 77.2615Z" fill="#F0EBE5"/>
</g>
<defs>
<clipPath id="clip0_170_3285">
<rect width="279" height="221.369" fill="white"/>
</clipPath>
</defs>
</svg>
