<svg width="161" height="47" viewBox="0 0 161 47" fill="none" xmlns="http://www.w3.org/2000/svg">
<path d="M137.912 44.1999L128.396 14.9385C128.312 14.654 128.135 14.4063 127.892 14.2362C127.641 14.0608 127.342 13.969 127.037 13.9739H123.608C123.302 13.9684 123.003 14.0603 122.753 14.2362C122.508 14.4045 122.33 14.6529 122.248 14.9385L112.74 44.1999C112.707 44.3138 112.692 44.4324 112.696 44.551C112.692 44.6867 112.718 44.8216 112.771 44.9466C112.823 45.0715 112.903 45.1837 113.002 45.2755C113.204 45.4643 113.472 45.5665 113.749 45.56H116.819C117.127 45.5638 117.429 45.4636 117.674 45.2755C117.915 45.0941 118.092 44.8402 118.178 44.551L120.151 38.2265H130.413L132.386 44.545C132.472 44.8341 132.649 45.088 132.89 45.2694C133.135 45.4581 133.436 45.5584 133.745 45.554H136.904C137.179 45.5601 137.446 45.458 137.648 45.2694C137.748 45.1777 137.827 45.0655 137.88 44.9405C137.933 44.8155 137.958 44.6806 137.954 44.545C137.957 44.4285 137.943 44.3122 137.912 44.1999ZM121.686 33.2743L125.282 21.5697L128.878 33.2743H121.686Z" fill="#F0EBE5"/>
<path d="M112.696 15.001C112.699 14.8793 112.676 14.7582 112.631 14.6452C112.586 14.5322 112.518 14.4295 112.432 14.3434C112.346 14.2573 112.243 14.1894 112.13 14.144C112.017 14.0985 111.896 14.0763 111.774 14.0788H91.6915C91.5697 14.0763 91.4488 14.0985 91.3358 14.144C91.2229 14.1894 91.1203 14.2573 91.0342 14.3434C90.9481 14.4295 90.8803 14.5322 90.8348 14.6452C90.7894 14.7582 90.7672 14.8793 90.7697 15.001V18.2904C90.7672 18.4122 90.7894 18.5332 90.8348 18.6463C90.8803 18.7593 90.9481 18.8619 91.0342 18.948C91.1203 19.0342 91.2229 19.102 91.3358 19.1475C91.4488 19.193 91.5697 19.2151 91.6915 19.2127H99.0574V44.5288C99.055 44.6506 99.0771 44.7716 99.1226 44.8846C99.168 44.9977 99.2358 45.1003 99.3219 45.1864C99.408 45.2726 99.5106 45.3404 99.6235 45.3859C99.7365 45.4314 99.8575 45.4535 99.9792 45.4511H103.487C103.608 45.4535 103.729 45.4314 103.842 45.3859C103.955 45.3404 104.058 45.2726 104.144 45.1864C104.23 45.1003 104.298 44.9977 104.343 44.8846C104.389 44.7716 104.411 44.6506 104.408 44.5288V19.2127H111.774C111.896 19.2151 112.017 19.193 112.13 19.1475C112.243 19.102 112.346 19.0342 112.432 18.948C112.518 18.8619 112.586 18.7593 112.631 18.6463C112.676 18.5332 112.699 18.4122 112.696 18.2904V15.001Z" fill="#F0EBE5"/>
<path d="M63.7674 1.00004H48.8136C48.5655 0.998152 48.3195 1.04569 48.09 1.13987C47.8605 1.23405 47.6519 1.373 47.4766 1.54861C47.3013 1.72422 47.1626 1.93299 47.0687 2.16276C46.9749 2.39252 46.9276 2.63868 46.9298 2.88689V30.4834C46.9276 30.7316 46.9749 30.9778 47.0687 31.2076C47.1626 31.4373 47.3013 31.6461 47.4766 31.8217C47.6519 31.9973 47.8605 32.1363 48.09 32.2304C48.3195 32.3246 48.5655 32.3722 48.8136 32.3703H63.7674C63.8891 32.3733 64.0102 32.3516 64.1232 32.3065C64.2363 32.2613 64.339 32.1937 64.4252 32.1076C64.5114 32.0216 64.5792 31.919 64.6246 31.8059C64.67 31.6929 64.6919 31.5718 64.6892 31.4501V28.1587C64.6919 28.0369 64.67 27.9158 64.6246 27.8028C64.5792 27.6897 64.5114 27.5871 64.4252 27.5011C64.339 27.415 64.2363 27.3474 64.1232 27.3023C64.0102 27.2571 63.8891 27.2354 63.7674 27.2384H52.2707V18.5508H60.8226C60.9443 18.5536 61.0653 18.5316 61.1783 18.4862C61.2913 18.4408 61.3939 18.373 61.4799 18.2867C61.5659 18.2005 61.6335 18.0977 61.6786 17.9846C61.7237 17.8715 61.7454 17.7504 61.7424 17.6286V14.5128C61.7457 14.391 61.7242 14.2698 61.6792 14.1567C61.6341 14.0435 61.5665 13.9408 61.4804 13.8546C61.3943 13.7685 61.2916 13.7008 61.1785 13.6558C61.0654 13.6107 60.9443 13.5892 60.8226 13.5925H52.2707V6.13995H63.7674C63.8891 6.14242 64.0101 6.12026 64.123 6.07479C64.236 6.02932 64.3386 5.96148 64.4247 5.87534C64.5108 5.78921 64.5786 5.68655 64.624 5.57354C64.6695 5.46053 64.6916 5.3395 64.6892 5.21771V1.92026C64.6919 1.79848 64.67 1.67741 64.6246 1.56438C64.5792 1.45135 64.5114 1.34871 64.4252 1.26268C64.339 1.17664 64.2363 1.109 64.1232 1.06386C64.0102 1.01871 63.8891 0.997 63.7674 1.00004Z" fill="#F0EBE5"/>
<path d="M16.8399 1.00004H1.8861C1.63799 0.998427 1.39204 1.04613 1.16251 1.14039C0.932983 1.23464 0.724448 1.37356 0.549008 1.5491C0.373568 1.72463 0.234716 1.93327 0.140512 2.16292C0.0463075 2.39257 -0.00137518 2.63866 0.000232456 2.88689V31.4501C-0.00253498 31.5718 0.0194327 31.6929 0.0648015 31.8059C0.11017 31.919 0.177996 32.0216 0.264175 32.1076C0.350353 32.1937 0.453089 32.2613 0.56616 32.3065C0.679231 32.3516 0.800285 32.3733 0.921988 32.3703H4.42949C4.5512 32.3733 4.67225 32.3516 4.78532 32.3065C4.89839 32.2613 5.00113 32.1937 5.08731 32.1076C5.17349 32.0216 5.24131 31.919 5.28668 31.8059C5.33205 31.6929 5.35402 31.5718 5.35125 31.4501V19.2955H13.9092C14.0311 19.2991 14.1524 19.2778 14.2657 19.2328C14.3791 19.1879 14.482 19.1203 14.5683 19.0341C14.6546 18.948 14.7224 18.8451 14.7676 18.7318C14.8128 18.6185 14.8343 18.4972 14.831 18.3753V15.2594C14.834 15.1375 14.8123 15.0162 14.767 14.9029C14.7218 14.7897 14.654 14.6868 14.5678 14.6005C14.4816 14.5143 14.3788 14.4464 14.2656 14.4012C14.1523 14.3559 14.0311 14.3341 13.9092 14.3372H5.35125V6.13995H16.848C16.9697 6.14242 17.0907 6.12026 17.2036 6.07479C17.3166 6.02932 17.4192 5.96148 17.5052 5.87534C17.5913 5.78921 17.6591 5.68655 17.7046 5.57354C17.75 5.46053 17.7722 5.3395 17.7697 5.21771V1.92026C17.7725 1.79848 17.7505 1.67741 17.7052 1.56438C17.6598 1.45135 17.592 1.34871 17.5058 1.26268C17.4196 1.17664 17.3169 1.109 17.2038 1.06386C17.0907 1.01871 16.9697 0.997 16.848 1.00004H16.8399Z" fill="#F0EBE5"/>
<path d="M82.7204 28.6451C80.9817 27.9293 79.9807 27.5257 79.7171 27.4342C77.8763 26.6728 76.539 25.9194 75.7054 25.1741C75.3209 24.8224 75.0119 24.3962 74.7971 23.9214C74.5823 23.4466 74.4662 22.933 74.4559 22.412C74.4455 21.8909 74.541 21.3731 74.7368 20.8901C74.9325 20.4071 75.2243 19.969 75.5944 19.6023C76.3541 18.8852 77.3922 18.5267 78.7086 18.5267C79.6552 18.5486 80.5932 18.7111 81.492 19.009C82.6468 19.3874 83.7457 19.9189 84.7595 20.5891C84.9593 20.7048 85.1862 20.7654 85.4171 20.7647C85.5928 20.7712 85.7664 20.7244 85.9151 20.6304C86.0638 20.5364 86.1806 20.3996 86.2501 20.238L87.6982 17.4733C87.7865 17.2887 87.8023 17.0777 87.7426 16.882C87.7044 16.6934 87.5936 16.5274 87.434 16.4198C86.174 15.4991 84.7765 14.7833 83.2932 14.2989C81.8024 13.7947 80.2399 13.535 78.6663 13.53C76.7945 13.53 75.1426 13.9108 73.7106 14.6722C72.3124 15.401 71.1493 16.5115 70.3564 17.8748C69.533 19.3161 69.1148 20.9534 69.1462 22.6132C69.1462 25.1586 69.8259 27.0892 71.1853 28.4049C72.6455 29.7872 74.3481 30.8879 76.2076 31.6519L77.4783 32.1786C78.8821 32.7343 79.949 33.2051 80.6792 33.5912C81.3528 33.9266 81.9501 34.3971 82.434 34.9736C82.8809 35.5416 83.1136 36.2489 83.0915 36.9714C83.1077 37.5277 82.9955 38.0801 82.7636 38.5859C82.5316 39.0916 82.1862 39.537 81.7542 39.8875C80.8627 40.6342 79.6418 41.0075 78.0914 41.0075C76.1914 41.0075 74.1456 40.32 71.9538 38.9451C71.7539 38.8297 71.5271 38.7691 71.2963 38.7695C71.1203 38.7631 70.9464 38.8099 70.7975 38.9039C70.6485 38.9978 70.5313 39.1346 70.4612 39.2962L68.9283 42.0609C68.8408 42.2458 68.8257 42.4567 68.886 42.6522C68.9039 42.7455 68.9402 42.8342 68.9928 42.9132C69.0455 42.9922 69.1134 43.0599 69.1926 43.1123C70.5101 44.0208 71.9497 44.7376 73.4685 45.2413C74.9734 45.7474 76.5502 46.0064 78.1378 46.0082C80.1548 46.0082 81.9385 45.6133 83.4888 44.8236C84.9835 44.0847 86.2376 42.9363 87.1053 41.512C87.9798 40.0499 88.4283 38.3724 88.4002 36.6687C88.4002 34.7987 87.8885 33.1755 86.8652 31.7992C85.7998 30.3865 84.3656 29.295 82.7204 28.6451Z" fill="#F0EBE5"/>
<path d="M42.4312 30.8345L35.152 19.5598C37.1121 18.9846 38.8345 17.7921 40.0633 16.1594C41.1823 14.6752 41.8342 12.8912 41.9359 11.0349C42.0375 9.17853 41.5843 7.33395 40.6341 5.73631C39.7732 4.29003 38.5486 3.09468 37.0822 2.26934C35.5855 1.42047 33.8913 0.981907 32.1709 0.997985H23.9699C23.7218 0.996377 23.4758 1.04408 23.2463 1.13834C23.0168 1.23259 22.8082 1.37151 22.6328 1.54705C22.4574 1.72258 22.3185 1.93122 22.2243 2.16087C22.1301 2.39052 22.0824 2.6366 22.084 2.88484V22.8149L27.435 31.4238V20.0421H29.5831L36.8623 31.7568C36.9811 31.9501 37.1494 32.1082 37.3498 32.2147C37.5501 32.3211 37.7753 32.372 38.0019 32.3622H41.5982C41.8644 32.3718 42.124 32.2778 42.3223 32.0998C42.4142 32.0171 42.4872 31.9155 42.5363 31.802C42.5854 31.6884 42.6094 31.5656 42.6067 31.442C42.6017 31.2277 42.5412 31.0184 42.4312 30.8345ZM27.435 14.997V6.04507H31.9067C33.2513 6.04507 34.3553 6.46953 35.2185 7.31845C36.0818 8.16736 36.5127 9.2497 36.5114 10.5655C36.5296 11.1565 36.424 11.7448 36.2013 12.2925C35.9786 12.8403 35.6439 13.3353 35.2185 13.7459C34.3553 14.5786 33.2513 14.9957 31.9067 14.997H27.435Z" fill="#F0EBE5"/>
<path d="M153.093 19.015C154.248 19.3943 155.347 19.9257 156.361 20.5951C156.561 20.711 156.788 20.7716 157.019 20.7707C157.194 20.777 157.368 20.7301 157.516 20.6361C157.665 20.5422 157.782 20.4055 157.851 20.244L159.298 17.4793C159.387 17.295 159.403 17.0836 159.342 16.888C159.305 16.6997 159.194 16.5336 159.035 16.4259C157.775 15.5036 156.378 14.7858 154.895 14.2989C153.405 13.7937 151.843 13.534 150.27 13.53L148.906 18.7002C149.368 18.5842 149.842 18.5279 150.318 18.5327C151.262 18.5556 152.197 18.7181 153.093 19.015Z" fill="#F0EBE5"/>
<path d="M158.465 31.783C157.399 30.3758 155.965 29.29 154.322 28.6449C152.581 27.9292 151.579 27.5256 151.317 27.4341C149.476 26.6727 148.139 25.9193 147.305 25.1739C147.273 25.1457 147.245 25.1154 147.214 25.0872L145.756 30.6166C146.419 31.0013 147.105 31.345 147.809 31.6457L149.08 32.1725C150.484 32.7281 151.552 33.199 152.283 33.5851C152.956 33.9204 153.553 34.391 154.036 34.9674C154.484 35.5349 154.716 36.2426 154.693 36.9653C154.71 37.5215 154.597 38.0739 154.365 38.5797C154.133 39.0854 153.788 39.5309 153.356 39.8813C152.465 40.628 151.244 41.0013 149.695 41.0013C147.797 41.0013 145.753 40.3152 143.564 38.9429L142.23 43.988C143.136 44.4891 144.086 44.9059 145.068 45.2331C146.574 45.7391 148.151 45.9981 149.74 46C151.757 46 153.54 45.6051 155.089 44.8154C156.583 44.076 157.838 42.9278 158.707 41.5038C159.58 40.0412 160.028 38.3639 160 36.6605C160 34.7851 159.488 33.1593 158.465 31.783Z" fill="#F0EBE5"/>
</svg>
