<svg width="151" height="755" viewBox="0 0 151 755" fill="none" xmlns="http://www.w3.org/2000/svg">
<g clip-path="url(#clip0_245_459)">
<path d="M41.7452 -1.82474e-06L60.9532 -2.66435e-06L0 634.272L-2.59176e-05 41.3477C-2.69159e-05 18.5092 18.6874 -8.16852e-07 41.7452 -1.82474e-06Z" fill="#FFD744"/>
<path d="M203.561 530.602L60.9669 -2.66495e-06L107.041 -4.67893e-06C162.789 -7.11571e-06 207.973 44.7591 207.973 99.9579L207.973 506.736L208 506.736L208 755L207.973 755L67.735 755C30.3191 755 -1.31271e-06 724.969 -2.93203e-06 687.923L-5.27717e-06 634.272L203.561 752.438L203.561 530.602Z" fill="#FFD744"/>
</g>
<defs>
<clipPath id="clip0_245_459">
<rect width="755" height="208" fill="white" transform="translate(0 755) rotate(-90)"/>
</clipPath>
</defs>
</svg>
