<svg width="224" height="116" viewBox="0 0 224 116" fill="none" xmlns="http://www.w3.org/2000/svg">
<g clip-path="url(#clip0_228_1503)">
<path d="M192.946 89.6705L179.635 48.7723C179.519 48.3747 179.271 48.0282 178.933 47.7895C178.581 47.5461 178.163 47.4185 177.736 47.4244H172.949C172.521 47.4185 172.103 47.5461 171.752 47.7895C171.412 48.0266 171.164 48.3737 171.05 48.7723L157.739 89.6705C157.691 89.8288 157.67 89.994 157.677 90.1592C157.671 90.3493 157.707 90.5384 157.78 90.7137C157.854 90.8891 157.964 91.0466 158.104 91.1757C158.397 91.4402 158.783 91.5776 159.177 91.5576H163.47C163.897 91.5592 164.313 91.422 164.656 91.1667C164.998 90.9115 165.249 90.552 165.369 90.1423L168.133 81.3134H182.484L185.248 90.1423C185.367 90.5476 185.613 90.904 185.95 91.1589C186.293 91.4218 186.715 91.5623 187.147 91.5576H191.563C191.95 91.5655 192.325 91.4225 192.608 91.1589C192.748 91.0298 192.859 90.8722 192.932 90.6969C193.006 90.5215 193.041 90.3324 193.036 90.1423C193.029 89.9815 192.998 89.8226 192.946 89.6705ZM170.252 74.4053L175.309 58.0337L180.337 74.4053H170.252Z" fill="#F0EBE5"/>
<path d="M157.677 48.8734C157.682 48.7035 157.652 48.5344 157.588 48.3769C157.524 48.2193 157.428 48.0767 157.307 47.958C157.187 47.8364 157.043 47.7408 156.884 47.677C156.726 47.6132 156.556 47.5827 156.385 47.5873H128.275C128.105 47.5835 127.936 47.6141 127.778 47.6774C127.62 47.7407 127.477 47.8353 127.357 47.9555C127.236 48.0757 127.142 48.219 127.078 48.3768C127.015 48.5345 126.984 48.7035 126.988 48.8734V53.4732C126.984 53.6434 127.014 53.8128 127.077 53.971C127.139 54.1293 127.234 54.2733 127.353 54.3943C127.474 54.5149 127.618 54.6095 127.776 54.6723C127.935 54.7351 128.104 54.7647 128.275 54.7594H138.58V90.1424C138.576 90.3123 138.606 90.4813 138.67 90.639C138.733 90.7968 138.828 90.9401 138.948 91.0603C139.068 91.1805 139.212 91.2751 139.369 91.3384C139.527 91.4017 139.696 91.4323 139.866 91.4285H144.777C144.947 91.434 145.117 91.4044 145.276 91.3417C145.434 91.279 145.578 91.1845 145.699 91.0639C145.82 90.9434 145.914 90.7994 145.977 90.6409C146.04 90.4824 146.069 90.3127 146.064 90.1424V54.7594H156.368C156.539 54.764 156.708 54.7339 156.867 54.671C157.025 54.6081 157.17 54.5136 157.29 54.3933C157.411 54.273 157.506 54.1294 157.57 53.9713C157.634 53.8131 157.665 53.6437 157.661 53.4732L157.677 48.8734Z" fill="#F0EBE5"/>
<path d="M89.236 29.3005H68.3176C67.9704 29.2975 67.6262 29.3635 67.3048 29.4948C66.9834 29.626 66.6914 29.8198 66.4456 30.065C66.1999 30.3101 66.0054 30.6016 65.8734 30.9226C65.7414 31.2435 65.6746 31.5875 65.6768 31.9345V70.502C65.6753 70.849 65.7426 71.193 65.8748 71.5139C66.007 71.8348 66.2014 72.1264 66.447 72.3718C66.6925 72.6172 66.9842 72.8116 67.3053 72.9438C67.6263 73.0759 67.9704 73.1432 68.3176 73.1417H89.236C89.406 73.1465 89.5751 73.116 89.7328 73.0522C89.8904 72.9884 90.0331 72.8927 90.1518 72.771C90.2735 72.651 90.3691 72.5074 90.4329 72.3489C90.4967 72.1905 90.5273 72.0206 90.5227 71.8499V67.2557C90.5265 67.0855 90.4958 66.9163 90.4326 66.7582C90.3694 66.6002 90.2748 66.4565 90.1546 66.3358C90.0345 66.2152 89.8912 66.1201 89.7333 66.0562C89.5754 65.9923 89.4063 65.9609 89.236 65.964H73.1609V53.8271H85.1231C85.2936 53.8309 85.4631 53.8001 85.6213 53.7365C85.7796 53.6729 85.9232 53.5778 86.0435 53.457C86.1639 53.3361 86.2584 53.1922 86.3214 53.0337C86.3843 52.8753 86.4144 52.7057 86.4098 52.5353V48.1826C86.4151 48.0123 86.3855 47.8427 86.3226 47.6843C86.2598 47.5258 86.1652 47.382 86.0446 47.2615C85.9235 47.1418 85.7795 47.0477 85.6211 46.985C85.4628 46.9222 85.2934 46.8921 85.1231 46.8965H73.1609V36.4725H89.236C89.4058 36.4756 89.5745 36.4444 89.732 36.3808C89.8894 36.3173 90.0325 36.2227 90.1526 36.1026C90.2727 35.9826 90.3673 35.8396 90.4309 35.6822C90.4945 35.5247 90.5257 35.3561 90.5227 35.1864V30.5866C90.5273 30.4159 90.4967 30.246 90.4329 30.0876C90.3691 29.9291 90.2735 29.7855 90.1518 29.6655C90.0326 29.5448 89.8897 29.4501 89.7321 29.3873C89.5745 29.3245 89.4056 29.2949 89.236 29.3005Z" fill="#F0EBE5"/>
<path d="M23.5872 29.3005H2.66883C2.32173 29.2967 1.97738 29.3623 1.65596 29.4933C1.33455 29.6244 1.04256 29.8183 0.797105 30.0636C0.551654 30.3089 0.357691 30.6008 0.226594 30.9221C0.0954961 31.2434 0.0299026 31.5876 0.0336635 31.9345V71.8499C0.0290513 72.0203 0.0591374 72.1899 0.122094 72.3483C0.185051 72.5068 0.279566 72.6508 0.399899 72.7716C0.520232 72.8924 0.663873 72.9875 0.822101 73.0511C0.980328 73.1147 1.14984 73.1455 1.32034 73.1417H6.22546C6.39622 73.1455 6.56598 73.1147 6.72451 73.0512C6.88303 72.9876 7.02703 72.8926 7.1478 72.7719C7.26858 72.6511 7.36363 72.5072 7.42721 72.3487C7.4908 72.1903 7.5216 72.0206 7.51776 71.8499V54.8661H19.48C19.65 54.8699 19.819 54.8393 19.9769 54.776C20.1347 54.7127 20.2781 54.6181 20.3983 54.4979C20.5186 54.3777 20.6132 54.2344 20.6765 54.0766C20.7398 53.9188 20.7705 53.7499 20.7666 53.5799V49.2273C20.7705 49.0575 20.7395 48.8887 20.6758 48.7313C20.612 48.5739 20.5167 48.4311 20.3958 48.3118C20.2766 48.1911 20.1337 48.0964 19.9761 48.0336C19.8184 47.9707 19.6495 47.9412 19.48 47.9467H7.51776V36.4725H23.5872C23.7586 36.4787 23.9295 36.4498 24.0893 36.3876C24.2492 36.3253 24.3946 36.2311 24.5166 36.1107C24.6387 35.9902 24.7349 35.8461 24.7992 35.6872C24.8635 35.5282 24.8947 35.3578 24.8908 35.1864V30.5866C24.8951 30.4164 24.865 30.2471 24.8022 30.0888C24.7395 29.9305 24.6453 29.7866 24.5255 29.6655C24.4031 29.5429 24.2564 29.447 24.0949 29.3842C23.9333 29.3213 23.7604 29.2928 23.5872 29.3005Z" fill="#F0EBE5"/>
<path d="M115.745 67.9353C113.312 66.93 111.908 66.3684 111.542 66.2504C108.961 65.1833 107.089 64.1293 105.924 63.0884C105.361 62.602 104.913 61.9974 104.611 61.3178C104.309 60.6382 104.16 59.9004 104.176 59.157C104.154 58.4417 104.285 57.73 104.56 57.0694C104.835 56.4087 105.248 55.8146 105.772 55.3267C106.969 54.2722 108.533 53.7314 110.126 53.8215C111.451 53.8513 112.763 54.0784 114.02 54.4954C115.634 55.0249 117.17 55.7672 118.588 56.7027C118.867 56.867 119.186 56.9524 119.51 56.9498C119.756 56.9581 119.999 56.8924 120.207 56.7613C120.415 56.6301 120.58 56.4395 120.678 56.214L122.701 52.35C122.826 52.0927 122.848 51.7974 122.763 51.5244C122.737 51.3935 122.685 51.2691 122.611 51.1582C122.537 51.0474 122.441 50.9523 122.33 50.8785C120.568 49.5887 118.613 48.5859 116.537 47.9075C114.453 47.2002 112.266 46.8378 110.065 46.8347C107.658 46.7854 105.276 47.3314 103.131 48.4242C101.174 49.4487 99.5474 51.0066 98.4395 52.9172C97.2923 54.9349 96.71 57.2242 96.7539 59.5445C96.7539 63.0978 97.7035 65.7955 99.6026 67.6377C101.647 69.5688 104.03 71.1071 106.632 72.1757L108.407 72.9114C110.374 73.6865 111.863 74.3436 112.902 74.8715C113.845 75.3393 114.681 75.9971 115.357 76.8036C115.987 77.6012 116.314 78.5962 116.279 79.6117C116.302 80.3895 116.145 81.1621 115.821 81.8693C115.496 82.5765 115.013 83.1993 114.408 83.6892C113.155 84.7282 111.452 85.2505 109.284 85.2505C106.624 85.2505 103.762 84.2901 100.698 82.3694C100.418 82.2083 100.1 82.1231 99.7768 82.1222C99.5307 82.1139 99.2878 82.1796 99.0794 82.3107C98.8711 82.4419 98.7069 82.6325 98.6081 82.858L96.4618 86.722C96.3391 86.9819 96.3171 87.278 96.4 87.5532C96.4537 87.8155 96.6093 88.0457 96.8326 88.1935C98.6748 89.4629 100.688 90.4651 102.811 91.1702C104.917 91.8776 107.124 92.2398 109.345 92.2429C111.939 92.2846 114.505 91.707 116.83 90.558C118.918 89.5228 120.671 87.9185 121.886 85.9301C123.108 83.8827 123.735 81.5351 123.696 79.1512C123.749 76.6967 122.988 74.2935 121.532 72.3161C120.043 70.3514 118.041 68.8355 115.745 67.9353Z" fill="#F0EBE5"/>
<path d="M59.3841 70.9963L49.203 55.2368C51.9449 54.4324 54.3546 52.7662 56.0747 50.4854C57.6378 48.4108 58.5483 45.9184 58.6904 43.3251C58.8325 40.7319 58.1997 38.155 56.8726 35.9222C55.6669 33.9003 53.9525 32.2292 51.9 31.0753C49.8077 29.8895 47.4391 29.2772 45.034 29.3005H33.5606C33.2135 29.2967 32.8692 29.3623 32.5477 29.4934C32.2263 29.6244 31.9343 29.8183 31.6889 30.0636C31.4434 30.309 31.2495 30.6008 31.1184 30.9221C30.9873 31.2434 30.9217 31.5876 30.9254 31.9346V59.786L38.4039 71.8219V55.9107H41.4099L51.5966 72.2824C51.7613 72.5553 51.9963 72.779 52.2769 72.9301C52.5576 73.0813 52.8737 73.1543 53.1923 73.1417H58.2211C58.5938 73.1555 58.957 73.0224 59.2324 72.771C59.3611 72.6551 59.4633 72.5128 59.5322 72.3539C59.601 72.1949 59.6348 72.0231 59.6313 71.8499C59.625 71.5487 59.5397 71.2543 59.3841 70.9963ZM38.4039 48.8735V36.349H44.6631C45.5151 36.3184 46.3644 36.4603 47.1601 36.7663C47.9557 37.0722 48.6812 37.5359 49.2929 38.1294C49.8919 38.7197 50.362 39.4278 50.6734 40.2089C50.9848 40.9899 51.1308 41.8271 51.1022 42.6674C51.1284 43.4932 50.981 44.3154 50.6693 45.0806C50.3577 45.8459 49.8888 46.5372 49.2929 47.1099C48.677 47.6953 47.9499 48.1514 47.1548 48.4514C46.3596 48.7514 45.5124 48.8891 44.6631 48.8566L38.4039 48.8735Z" fill="#F0EBE5"/>
<path d="M214.184 54.4898C215.792 55.0153 217.322 55.7519 218.735 56.6802C219.014 56.8445 219.333 56.9299 219.657 56.9273C219.903 56.9356 220.146 56.8699 220.354 56.7388C220.563 56.6076 220.727 56.417 220.826 56.1916L222.848 52.3275C222.973 52.0702 222.995 51.7749 222.91 51.5019C222.884 51.371 222.833 51.2466 222.758 51.1357C222.684 51.0249 222.589 50.9298 222.477 50.856C220.716 49.5662 218.76 48.5634 216.685 47.885C214.6 47.1777 212.413 46.8153 210.212 46.8123L208.307 54.0349C208.95 53.8716 209.611 53.7923 210.274 53.799C211.604 53.8326 212.923 54.0654 214.184 54.4898Z" fill="#F0EBE5"/>
<path d="M221.702 72.3161C220.21 70.3497 218.204 68.8337 215.904 67.9353C213.471 66.93 212.066 66.3683 211.701 66.2504C209.12 65.1833 207.247 64.1293 206.082 63.0884L205.959 62.9705L203.919 70.6985C204.846 71.2358 205.805 71.7159 206.79 72.1363L208.566 72.8721C210.532 73.6471 212.021 74.3042 213.061 74.8322C214.004 75.3 214.84 75.9578 215.516 76.7642C216.146 77.5619 216.472 78.5569 216.438 79.5724C216.461 80.3501 216.304 81.1227 215.98 81.8299C215.655 82.5372 215.171 83.16 214.567 83.6498C213.319 84.6907 211.611 85.2112 209.442 85.2112C206.783 85.2112 203.923 84.2527 200.863 82.3356L199.003 89.3897C200.27 90.0892 201.597 90.672 202.97 91.1308C205.076 91.8382 207.282 92.2005 209.504 92.2035C212.098 92.2453 214.663 91.6677 216.988 90.5186C219.077 89.4835 220.83 87.8791 222.045 85.8908C223.267 83.8433 223.894 81.4957 223.854 79.1118C223.902 76.672 223.146 74.2841 221.702 72.3161Z" fill="#F0EBE5"/>
<path d="M0.0672015 113.697C0.0449664 113.674 0.0275532 113.647 0.0159773 113.617C0.00440145 113.587 -0.00110493 113.555 -0.000222177 113.523V112.726C-0.00097116 112.694 0.00472439 112.661 0.0165303 112.632C0.0283363 112.602 0.046014 112.574 0.068524 112.551C0.091034 112.528 0.117922 112.51 0.147608 112.497C0.177293 112.485 0.209175 112.479 0.241382 112.479H1.23027V106.772H0.241382C0.176186 106.771 0.113967 106.745 0.0672015 106.699C0.0444246 106.677 0.0266576 106.649 0.015045 106.619C0.00343236 106.589 -0.00176779 106.557 -0.000222177 106.525V105.728C-0.00110493 105.696 0.00440145 105.664 0.0159773 105.634C0.0275532 105.604 0.0449664 105.577 0.0672015 105.554C0.114528 105.51 0.176845 105.486 0.241382 105.486H3.6126C3.67713 105.486 3.73945 105.51 3.78677 105.554C3.80901 105.577 3.82642 105.604 3.838 105.634C3.84957 105.664 3.85508 105.696 3.8542 105.728V106.525C3.85575 106.557 3.85054 106.589 3.83893 106.619C3.82732 106.649 3.80955 106.677 3.78677 106.699C3.74001 106.745 3.67779 106.771 3.6126 106.772H2.64056V112.479H3.62945C3.66166 112.479 3.69354 112.485 3.72323 112.497C3.75291 112.51 3.7798 112.528 3.80231 112.551C3.82482 112.574 3.8425 112.602 3.8543 112.632C3.86611 112.661 3.8718 112.694 3.87106 112.726V113.523C3.87194 113.555 3.86643 113.587 3.85486 113.617C3.84328 113.647 3.82587 113.674 3.80363 113.697C3.75631 113.741 3.69399 113.765 3.62945 113.765H0.258237C0.223467 113.767 0.188546 113.763 0.155671 113.751C0.122795 113.739 0.0926751 113.721 0.0672015 113.697Z" fill="#F0EBE5"/>
<path d="M10.5632 113.765C10.4969 113.722 10.4489 113.656 10.4283 113.579L8.90006 108.901L8.59665 107.845L8.48428 108.923L7.99545 113.461C7.98015 113.542 7.93866 113.615 7.87746 113.669C7.81978 113.719 7.74603 113.747 7.66957 113.748H6.80429C6.76773 113.75 6.73112 113.744 6.69711 113.731C6.6631 113.717 6.63254 113.696 6.60764 113.669C6.58321 113.641 6.56506 113.608 6.55441 113.572C6.54375 113.536 6.54083 113.498 6.54583 113.461L7.50663 105.778C7.51499 105.683 7.55918 105.595 7.63024 105.531C7.70522 105.463 7.80408 105.426 7.90556 105.43H8.95625C9.03678 105.432 9.11468 105.459 9.17912 105.507C9.24357 105.556 9.29135 105.623 9.31585 105.7L11.052 111.041L11.288 111.838L11.5184 111.052L13.2658 105.688C13.2885 105.613 13.3361 105.548 13.4006 105.503C13.4665 105.457 13.5448 105.431 13.6254 105.43H14.5862C14.6877 105.426 14.7865 105.463 14.8615 105.531C14.9326 105.595 14.9767 105.683 14.9851 105.778L15.9459 113.461C15.9509 113.498 15.948 113.536 15.9373 113.572C15.9267 113.608 15.9085 113.641 15.8841 113.669C15.8592 113.696 15.8286 113.717 15.7946 113.731C15.7606 113.744 15.724 113.75 15.6874 113.748H14.7772C14.6953 113.749 14.6156 113.721 14.5525 113.669C14.4943 113.619 14.458 113.549 14.4513 113.473L13.9288 108.839L13.822 107.845L13.5242 108.968L12.0297 113.591C12.0077 113.668 11.9601 113.735 11.8948 113.782C11.8308 113.832 11.7517 113.86 11.6701 113.86H10.7879C10.7049 113.853 10.6263 113.819 10.5632 113.765Z" fill="#F0EBE5"/>
<path d="M18.6767 113.692C18.6517 113.667 18.6319 113.637 18.6184 113.604C18.6049 113.571 18.598 113.536 18.598 113.501C18.5943 113.469 18.5943 113.437 18.598 113.405L21.1152 105.683C21.1357 105.608 21.1813 105.543 21.2444 105.497C21.309 105.449 21.3882 105.423 21.4692 105.424H22.3738C22.4565 105.423 22.5375 105.448 22.6042 105.497C22.6673 105.543 22.7129 105.608 22.7334 105.683L25.2506 113.405C25.2543 113.437 25.2543 113.469 25.2506 113.501C25.2509 113.537 25.2436 113.572 25.2291 113.605C25.2145 113.638 25.1931 113.668 25.1663 113.692C25.1401 113.716 25.1091 113.736 25.0754 113.748C25.0416 113.761 25.0056 113.766 24.9696 113.765H24.1605C24.0794 113.767 23.9999 113.741 23.9358 113.692C23.8717 113.644 23.8245 113.577 23.8009 113.501L23.2784 111.816H20.5702L20.0477 113.501C20.0241 113.577 19.9769 113.644 19.9128 113.692C19.8483 113.741 19.7691 113.766 19.6881 113.765H18.8734C18.8009 113.766 18.7307 113.74 18.6767 113.692ZM22.8739 110.524L21.9243 107.429L20.9579 110.524H22.8739Z" fill="#F0EBE5"/>
<path d="M29.0769 113.506C28.6112 113.236 28.224 112.849 27.9532 112.383C27.682 111.918 27.5403 111.388 27.543 110.85V108.407C27.5403 107.868 27.682 107.339 27.9532 106.873C28.224 106.408 28.6112 106.021 29.0769 105.75C29.5433 105.476 30.0755 105.335 30.6164 105.34C31.0805 105.335 31.5409 105.423 31.9705 105.599C32.3788 105.768 32.7437 106.027 33.0381 106.357C33.0826 106.413 33.1064 106.482 33.1055 106.553C33.1011 106.64 33.0675 106.724 33.01 106.789L32.5043 107.317C32.4813 107.345 32.453 107.367 32.4212 107.383C32.3894 107.4 32.3546 107.41 32.3189 107.413C32.2784 107.412 32.2385 107.402 32.2025 107.383C32.1664 107.365 32.1351 107.338 32.111 107.306C31.9205 107.106 31.69 106.948 31.4344 106.842C31.1789 106.737 30.904 106.686 30.6277 106.694C30.3365 106.694 30.0509 106.773 29.8017 106.924C29.5499 107.079 29.3412 107.296 29.1949 107.553C29.0456 107.809 28.9679 108.1 28.9702 108.395V110.867C28.9698 111.162 29.0473 111.453 29.1949 111.709C29.3383 111.968 29.5476 112.185 29.8017 112.338C30.0492 112.493 30.3356 112.575 30.6277 112.574C30.9166 112.576 31.2005 112.498 31.448 112.349C31.6994 112.208 31.9073 112 32.0492 111.748C32.1949 111.496 32.2705 111.209 32.2683 110.917V110.356H30.7176C30.685 110.357 30.6525 110.351 30.6224 110.338C30.5924 110.326 30.5654 110.307 30.5434 110.283C30.5206 110.26 30.5028 110.233 30.4912 110.203C30.4796 110.173 30.4744 110.141 30.476 110.108V109.277C30.4744 109.245 30.4795 109.213 30.4911 109.183C30.5026 109.153 30.5204 109.126 30.5431 109.103C30.5659 109.08 30.5932 109.062 30.6232 109.051C30.6533 109.039 30.6854 109.034 30.7176 109.036H33.1617C33.2272 109.034 33.2924 109.045 33.3533 109.069C33.4142 109.093 33.4695 109.13 33.5157 109.176C33.5621 109.223 33.5989 109.278 33.6239 109.339C33.649 109.399 33.6619 109.464 33.6618 109.53V110.878C33.6644 111.416 33.5228 111.946 33.2516 112.411C32.9808 112.877 32.5935 113.264 32.1279 113.534C31.6669 113.807 31.1406 113.948 30.6052 113.944C30.0655 113.94 29.5372 113.788 29.0769 113.506Z" fill="#F0EBE5"/>
<path d="M36.1283 113.697C36.106 113.674 36.0886 113.647 36.077 113.617C36.0655 113.587 36.06 113.555 36.0608 113.523V112.726C36.0593 112.694 36.0645 112.661 36.0761 112.631C36.0877 112.601 36.1055 112.574 36.1283 112.552C36.1503 112.527 36.1772 112.508 36.2073 112.496C36.2374 112.483 36.2698 112.477 36.3024 112.479H37.252V106.772H36.2687C36.2178 106.77 36.1688 106.753 36.1283 106.722C36.1055 106.699 36.0877 106.672 36.0761 106.642C36.0645 106.612 36.0593 106.58 36.0608 106.548V105.75C36.0592 105.718 36.0644 105.686 36.0759 105.656C36.0875 105.626 36.1053 105.599 36.128 105.576C36.1508 105.553 36.1781 105.535 36.2081 105.524C36.2382 105.512 36.2703 105.507 36.3024 105.509H39.6737C39.7058 105.507 39.7379 105.512 39.7679 105.524C39.7979 105.536 39.8251 105.553 39.8478 105.576C39.8943 105.622 39.9205 105.685 39.9209 105.75V106.548C39.9209 106.613 39.8948 106.676 39.8485 106.722C39.8021 106.769 39.7392 106.795 39.6737 106.795H38.6904V112.501H39.6737C39.7063 112.499 39.7389 112.505 39.769 112.518C39.7992 112.53 39.8261 112.55 39.8478 112.574C39.8713 112.596 39.89 112.623 39.9025 112.653C39.9151 112.683 39.9214 112.716 39.9209 112.748V113.546C39.9205 113.611 39.8943 113.674 39.8478 113.72C39.8251 113.743 39.7979 113.76 39.7679 113.772C39.7379 113.783 39.7058 113.789 39.6737 113.787H36.3024C36.2687 113.785 36.2358 113.776 36.2058 113.761C36.1758 113.745 36.1494 113.724 36.1283 113.697Z" fill="#F0EBE5"/>
<path d="M42.9547 113.697C42.9325 113.674 42.9151 113.647 42.9035 113.617C42.8919 113.587 42.8864 113.555 42.8873 113.523V105.818C42.8862 105.774 42.8942 105.73 42.9106 105.69C42.927 105.649 42.9516 105.612 42.9828 105.582C43.0463 105.521 43.1308 105.487 43.2188 105.486H44.1684C44.2316 105.484 44.2941 105.5 44.3495 105.53C44.4048 105.561 44.4509 105.606 44.483 105.66L47.2643 110.361L47.8261 111.333V105.716C47.8252 105.684 47.8308 105.653 47.8423 105.623C47.8539 105.593 47.8713 105.565 47.8936 105.542C47.9409 105.498 48.0032 105.474 48.0677 105.475H48.9049C48.9371 105.473 48.9692 105.478 48.9992 105.49C49.0293 105.502 49.0566 105.519 49.0793 105.542C49.1021 105.565 49.1198 105.592 49.1314 105.622C49.143 105.652 49.1481 105.684 49.1465 105.716V113.416C49.1481 113.461 49.1404 113.506 49.1241 113.547C49.1077 113.589 49.0829 113.627 49.0513 113.658C49.0197 113.69 48.9819 113.715 48.9402 113.731C48.8986 113.747 48.8541 113.755 48.8094 113.753H47.8486C47.7855 113.755 47.7232 113.739 47.6679 113.709C47.6127 113.678 47.5665 113.633 47.534 113.579L44.6628 108.716L44.2133 107.929V113.512C44.2142 113.545 44.2082 113.579 44.1956 113.609C44.1831 113.64 44.1642 113.668 44.1403 113.692C44.0921 113.734 44.0299 113.756 43.9661 113.753H43.1345C43.1023 113.757 43.0696 113.754 43.0386 113.745C43.0076 113.735 42.979 113.719 42.9547 113.697Z" fill="#F0EBE5"/>
<path d="M51.9561 113.692C51.9311 113.667 51.9112 113.637 51.8978 113.604C51.8843 113.571 51.8774 113.536 51.8774 113.501C51.8709 113.469 51.8709 113.437 51.8774 113.405L54.389 105.683C54.4117 105.608 54.4593 105.542 54.5238 105.497C54.5884 105.448 54.6676 105.423 54.7486 105.424H55.6532C55.7343 105.422 55.8138 105.448 55.8779 105.497C55.9442 105.54 55.9923 105.606 56.0128 105.683L58.53 113.405C58.5337 113.437 58.5337 113.469 58.53 113.501C58.5303 113.537 58.523 113.572 58.5085 113.605C58.4939 113.638 58.4725 113.668 58.4457 113.692C58.4195 113.716 58.3885 113.736 58.3548 113.748C58.321 113.761 58.285 113.766 58.249 113.765H57.4175C57.3363 113.767 57.2568 113.741 57.1927 113.692C57.1286 113.644 57.0814 113.577 57.0579 113.501L56.5353 111.816H53.8215L53.3046 113.501C53.2791 113.576 53.2323 113.642 53.1697 113.692C53.1052 113.741 53.026 113.766 52.945 113.765H52.1303C52.0656 113.761 52.0042 113.735 51.9561 113.692ZM56.1533 110.524L55.2318 107.429L54.2822 110.524H56.1533Z" fill="#F0EBE5"/>
<path d="M61.3334 113.697C61.3094 113.675 61.2904 113.648 61.2777 113.618C61.2651 113.588 61.2592 113.556 61.2604 113.523V105.98C61.2603 105.915 61.2732 105.85 61.2982 105.789C61.3233 105.728 61.3601 105.673 61.4065 105.627C61.4527 105.58 61.508 105.544 61.5689 105.52C61.6298 105.495 61.695 105.484 61.7605 105.486H63.9293C64.3831 105.484 64.83 105.598 65.2272 105.818C65.6126 106.038 65.9355 106.353 66.1655 106.733C66.3935 107.115 66.512 107.552 66.5083 107.997C66.515 108.534 66.3408 109.058 66.0138 109.485C65.6899 109.917 65.2345 110.232 64.7159 110.384L66.6375 113.36C66.6679 113.409 66.6835 113.466 66.6824 113.523C66.6836 113.556 66.6777 113.588 66.6651 113.618C66.6525 113.648 66.6335 113.675 66.6094 113.697C66.5566 113.743 66.4883 113.767 66.4184 113.765H65.4688C65.4082 113.768 65.3478 113.754 65.2943 113.726C65.2408 113.697 65.1962 113.654 65.1654 113.602L63.2438 110.513H62.6819V113.523C62.6831 113.556 62.6772 113.588 62.6646 113.618C62.652 113.648 62.633 113.675 62.6089 113.697C62.5868 113.719 62.5605 113.737 62.5315 113.748C62.5026 113.76 62.4715 113.765 62.4403 113.765H61.5132C61.4802 113.767 61.447 113.762 61.416 113.751C61.385 113.739 61.3568 113.721 61.3334 113.697ZM63.8562 109.204C64.0166 109.21 64.1766 109.185 64.327 109.129C64.4774 109.073 64.6153 108.988 64.7328 108.878C64.8455 108.77 64.9342 108.639 64.9932 108.493C65.0523 108.348 65.0803 108.193 65.0755 108.036C65.0819 107.878 65.0546 107.72 64.9956 107.573C64.9365 107.425 64.8469 107.292 64.7328 107.182C64.6167 107.07 64.4794 106.983 64.3288 106.925C64.1782 106.867 64.0175 106.84 63.8562 106.845H62.6763V109.204H63.8562Z" fill="#F0EBE5"/>
<path d="M74.3971 115.944C74.3752 115.925 74.3577 115.902 74.346 115.876C74.3344 115.849 74.3288 115.821 74.3297 115.792V104.835C74.3288 104.806 74.3344 104.777 74.346 104.751C74.3577 104.725 74.3752 104.702 74.3971 104.683C74.4163 104.664 74.4392 104.649 74.4643 104.64C74.4894 104.63 74.5163 104.626 74.5432 104.627H75.2568C75.2846 104.625 75.3124 104.63 75.3385 104.639C75.3646 104.649 75.3884 104.664 75.4085 104.683C75.4285 104.703 75.4443 104.726 75.4549 104.753C75.4656 104.779 75.4708 104.807 75.4703 104.835V115.792C75.4708 115.82 75.4656 115.848 75.4549 115.874C75.4443 115.9 75.4285 115.924 75.4085 115.944C75.3884 115.963 75.3646 115.978 75.3385 115.988C75.3124 115.997 75.2846 116.002 75.2568 116H74.5432C74.5163 116.001 74.4894 115.997 74.4643 115.987C74.4392 115.977 74.4163 115.963 74.3971 115.944Z" fill="#F0EBE5"/>
<path d="M83.5895 113.697C83.5673 113.674 83.5499 113.647 83.5383 113.617C83.5267 113.587 83.5212 113.555 83.5221 113.523V105.98C83.5207 105.915 83.5329 105.849 83.5581 105.788C83.5832 105.727 83.6207 105.672 83.6682 105.627C83.7135 105.581 83.7678 105.544 83.8278 105.52C83.8877 105.496 83.9519 105.485 84.0165 105.486H86.1853C86.6394 105.483 87.0866 105.597 87.4832 105.818C87.8699 106.037 88.1931 106.352 88.4216 106.733C88.6512 107.114 88.7717 107.552 88.7699 107.997C88.7746 108.535 88.5985 109.059 88.2699 109.485C87.946 109.917 87.4905 110.232 86.972 110.384L88.8992 113.36C88.9271 113.41 88.9425 113.466 88.9441 113.523C88.9438 113.589 88.9175 113.651 88.8711 113.697C88.818 113.743 88.7499 113.767 88.68 113.765H87.7249C87.665 113.767 87.6056 113.754 87.5531 113.725C87.5005 113.696 87.4569 113.654 87.4271 113.602L85.4999 110.513H84.938V113.523C84.9396 113.555 84.9344 113.587 84.9229 113.617C84.9113 113.647 84.8936 113.675 84.8708 113.698C84.848 113.72 84.8208 113.738 84.7907 113.75C84.7607 113.761 84.7285 113.766 84.6964 113.765H83.7693C83.7363 113.766 83.7033 113.761 83.6724 113.75C83.6415 113.738 83.6133 113.72 83.5895 113.697ZM86.1179 109.204C86.2775 109.211 86.4367 109.185 86.5863 109.129C86.7359 109.073 86.8727 108.988 86.9888 108.878C87.1015 108.77 87.1903 108.639 87.2493 108.493C87.3083 108.348 87.3363 108.193 87.3316 108.036C87.3379 107.878 87.3107 107.72 87.2516 107.572C87.1925 107.425 87.103 107.292 86.9888 107.182C86.8742 107.07 86.7379 106.982 86.5881 106.924C86.4384 106.866 86.2784 106.839 86.1179 106.845H84.9324V109.204H86.1179Z" fill="#F0EBE5"/>
<path d="M91.9274 113.619C91.8802 113.573 91.8429 113.518 91.8178 113.457C91.7927 113.396 91.7803 113.331 91.7813 113.265V105.964C91.7812 105.898 91.7941 105.833 91.8191 105.772C91.8442 105.711 91.881 105.656 91.9274 105.61C91.9736 105.563 92.0289 105.527 92.0898 105.503C92.1507 105.479 92.2159 105.467 92.2814 105.469H96.2145C96.2466 105.468 96.2787 105.473 96.3088 105.484C96.3388 105.496 96.3661 105.514 96.3889 105.536C96.4116 105.559 96.4294 105.587 96.441 105.617C96.4525 105.647 96.4577 105.679 96.4561 105.711V106.581C96.4566 106.646 96.4325 106.708 96.3886 106.755C96.3655 106.778 96.3382 106.795 96.3083 106.807C96.2784 106.818 96.2465 106.824 96.2145 106.823H93.1804V108.794H95.4278C95.4599 108.793 95.4918 108.799 95.5217 108.81C95.5516 108.822 95.5789 108.839 95.602 108.862C95.6248 108.884 95.6426 108.912 95.6542 108.942C95.6658 108.972 95.671 109.004 95.6694 109.036V109.856C95.671 109.888 95.6658 109.92 95.6542 109.95C95.6426 109.98 95.6248 110.007 95.602 110.03C95.5559 110.076 95.4933 110.102 95.4278 110.103H93.1804V112.394H96.2482C96.2803 112.393 96.3125 112.398 96.3425 112.409C96.3725 112.421 96.3998 112.439 96.4226 112.461C96.4454 112.484 96.4631 112.511 96.4747 112.542C96.4862 112.572 96.4914 112.604 96.4898 112.636V113.506C96.4914 113.538 96.4862 113.571 96.4747 113.601C96.4631 113.631 96.4454 113.658 96.4226 113.681C96.3998 113.703 96.3725 113.721 96.3425 113.733C96.3125 113.744 96.2803 113.749 96.2482 113.748H92.3151C92.2449 113.758 92.1734 113.751 92.1061 113.729C92.0389 113.706 91.9777 113.669 91.9274 113.619Z" fill="#F0EBE5"/>
<path d="M100.248 113.703C99.8491 113.57 99.4707 113.381 99.1248 113.141C99.0819 113.112 99.0517 113.068 99.0405 113.018C99.021 112.967 99.021 112.911 99.0405 112.86L99.445 112.13C99.4655 112.089 99.4977 112.054 99.5375 112.03C99.5774 112.006 99.6233 111.994 99.6698 111.996C99.7309 111.994 99.7913 112.009 99.844 112.04C100.319 112.377 100.88 112.572 101.462 112.602C101.81 112.622 102.153 112.516 102.429 112.304C102.543 112.212 102.634 112.095 102.696 111.961C102.757 111.828 102.787 111.682 102.783 111.535C102.789 111.344 102.727 111.157 102.608 111.007C102.481 110.855 102.324 110.731 102.148 110.642C101.871 110.504 101.588 110.38 101.299 110.271L100.968 110.137C100.475 109.935 100.023 109.643 99.6361 109.277C99.4483 109.072 99.3042 108.831 99.2125 108.568C99.1207 108.306 99.0832 108.027 99.1023 107.75C99.0921 107.311 99.2008 106.879 99.4169 106.497C99.6284 106.138 99.9358 105.844 100.305 105.649C100.711 105.446 101.16 105.343 101.614 105.351C102.448 105.358 103.259 105.625 103.934 106.115C103.975 106.145 104.003 106.189 104.013 106.239C104.033 106.287 104.033 106.342 104.013 106.39L103.631 107.121C103.614 107.164 103.583 107.201 103.544 107.226C103.505 107.251 103.458 107.263 103.412 107.261C103.351 107.261 103.291 107.245 103.238 107.216C102.969 107.04 102.678 106.9 102.372 106.8C102.135 106.719 101.887 106.675 101.636 106.671C101.337 106.654 101.042 106.755 100.816 106.952C100.716 107.047 100.636 107.161 100.581 107.287C100.526 107.414 100.498 107.55 100.498 107.688C100.498 107.826 100.526 107.962 100.581 108.088C100.636 108.215 100.716 108.329 100.816 108.424C101.135 108.679 101.494 108.882 101.878 109.024L102.67 109.339C103.105 109.51 103.484 109.797 103.766 110.17C104.039 110.542 104.181 110.995 104.17 111.456C104.178 111.907 104.06 112.351 103.828 112.737C103.597 113.111 103.266 113.412 102.872 113.607C102.432 113.823 101.947 113.931 101.457 113.922C101.045 113.914 100.637 113.84 100.248 113.703Z" fill="#F0EBE5"/>
<path d="M106.856 113.697C106.834 113.674 106.817 113.647 106.805 113.617C106.793 113.587 106.788 113.555 106.789 113.523V112.726C106.787 112.694 106.793 112.661 106.804 112.631C106.816 112.601 106.834 112.574 106.856 112.552C106.878 112.527 106.905 112.508 106.935 112.496C106.965 112.483 106.998 112.477 107.03 112.479H108.014V106.772H107.03C106.965 106.772 106.902 106.746 106.856 106.699C106.834 106.677 106.816 106.649 106.804 106.619C106.793 106.589 106.787 106.557 106.789 106.525V105.728C106.787 105.696 106.792 105.663 106.804 105.633C106.816 105.603 106.833 105.576 106.856 105.553C106.879 105.531 106.906 105.513 106.936 105.501C106.966 105.49 106.998 105.485 107.03 105.486H110.402C110.434 105.485 110.466 105.49 110.496 105.501C110.526 105.513 110.553 105.531 110.576 105.554C110.6 105.576 110.619 105.603 110.632 105.633C110.644 105.663 110.65 105.695 110.649 105.728V106.525C110.65 106.558 110.645 106.59 110.632 106.621C110.619 106.651 110.6 106.678 110.576 106.699C110.553 106.723 110.526 106.741 110.496 106.754C110.466 106.767 110.434 106.773 110.402 106.772H109.418V112.479H110.402C110.467 112.479 110.53 112.505 110.576 112.551C110.623 112.597 110.649 112.66 110.649 112.726V113.523C110.65 113.556 110.644 113.588 110.632 113.618C110.619 113.648 110.6 113.675 110.576 113.697C110.553 113.72 110.526 113.738 110.496 113.749C110.466 113.761 110.434 113.766 110.402 113.765H107.03C106.998 113.766 106.967 113.76 106.937 113.748C106.907 113.737 106.879 113.72 106.856 113.697Z" fill="#F0EBE5"/>
<path d="M114.396 113.703C113.998 113.568 113.62 113.379 113.273 113.141C113.23 113.112 113.2 113.068 113.188 113.018C113.169 112.967 113.169 112.911 113.188 112.86L113.593 112.13C113.613 112.089 113.646 112.054 113.685 112.03C113.725 112.006 113.771 111.994 113.818 111.996C113.879 111.994 113.939 112.009 113.992 112.04C114.467 112.377 115.028 112.572 115.61 112.602C115.958 112.622 116.301 112.516 116.577 112.304C116.691 112.212 116.782 112.095 116.844 111.961C116.905 111.828 116.935 111.682 116.93 111.535C116.937 111.344 116.875 111.157 116.756 111.007C116.629 110.855 116.472 110.731 116.296 110.642C116.019 110.504 115.736 110.38 115.447 110.271L115.116 110.137C114.623 109.935 114.171 109.643 113.784 109.277C113.596 109.072 113.452 108.831 113.36 108.568C113.269 108.306 113.231 108.027 113.25 107.75C113.24 107.311 113.349 106.879 113.565 106.497C113.776 106.138 114.084 105.844 114.453 105.649C114.859 105.446 115.308 105.343 115.762 105.351C116.596 105.358 117.407 105.625 118.082 106.115C118.123 106.145 118.151 106.189 118.161 106.239C118.181 106.287 118.181 106.342 118.161 106.39L117.779 107.121C117.761 107.164 117.731 107.201 117.692 107.226C117.652 107.251 117.606 107.263 117.56 107.261C117.499 107.261 117.439 107.245 117.386 107.216C117.117 107.04 116.826 106.9 116.52 106.8C116.283 106.719 116.035 106.675 115.784 106.671C115.485 106.654 115.19 106.755 114.964 106.952C114.864 107.047 114.784 107.161 114.729 107.287C114.674 107.414 114.646 107.55 114.646 107.688C114.646 107.826 114.674 107.962 114.729 108.088C114.784 108.215 114.864 108.329 114.964 108.424C115.283 108.679 115.642 108.882 116.026 109.024L116.818 109.339C117.253 109.51 117.632 109.797 117.914 110.17C118.187 110.542 118.329 110.995 118.318 111.456C118.326 111.907 118.208 112.351 117.976 112.737C117.746 113.112 117.415 113.414 117.02 113.607C116.58 113.823 116.095 113.931 115.604 113.922C115.193 113.914 114.785 113.84 114.396 113.703Z" fill="#F0EBE5"/>
<path d="M122.943 113.697C122.918 113.675 122.899 113.648 122.887 113.618C122.874 113.588 122.868 113.556 122.87 113.523V106.84H120.925C120.893 106.841 120.861 106.836 120.831 106.825C120.801 106.813 120.774 106.795 120.751 106.772C120.706 106.726 120.68 106.663 120.678 106.598V105.728C120.679 105.662 120.705 105.6 120.751 105.554C120.774 105.531 120.801 105.513 120.831 105.501C120.861 105.49 120.893 105.485 120.925 105.486H126.229C126.262 105.485 126.294 105.49 126.324 105.501C126.354 105.513 126.381 105.531 126.404 105.554C126.45 105.6 126.476 105.662 126.477 105.728V106.598C126.475 106.663 126.449 106.726 126.404 106.772C126.381 106.795 126.354 106.813 126.324 106.825C126.294 106.836 126.262 106.841 126.229 106.84H124.285V113.523C124.286 113.555 124.281 113.587 124.269 113.617C124.258 113.647 124.24 113.674 124.218 113.697C124.171 113.741 124.108 113.765 124.044 113.765H123.117C123.085 113.766 123.053 113.761 123.023 113.749C122.993 113.738 122.965 113.72 122.943 113.697Z" fill="#F0EBE5"/>
<path d="M129.072 113.697C129.048 113.675 129.029 113.648 129.017 113.618C129.004 113.588 128.998 113.556 128.999 113.523V112.726C128.998 112.693 129.003 112.66 129.016 112.63C129.029 112.6 129.048 112.573 129.072 112.552C129.093 112.528 129.119 112.509 129.148 112.496C129.178 112.483 129.209 112.477 129.241 112.479H130.23V106.772H129.241C129.209 106.772 129.178 106.765 129.149 106.753C129.12 106.74 129.094 106.722 129.072 106.699C129.048 106.678 129.029 106.651 129.016 106.621C129.003 106.59 128.998 106.558 128.999 106.525V105.728C128.998 105.695 129.004 105.663 129.017 105.633C129.029 105.603 129.048 105.576 129.072 105.554C129.094 105.532 129.121 105.514 129.15 105.503C129.179 105.491 129.21 105.485 129.241 105.486H132.612C132.677 105.486 132.739 105.51 132.786 105.554C132.809 105.577 132.826 105.604 132.837 105.634C132.849 105.664 132.855 105.696 132.854 105.728V106.525C132.855 106.557 132.85 106.589 132.838 106.619C132.827 106.649 132.809 106.677 132.786 106.699C132.74 106.745 132.677 106.771 132.612 106.772H131.646V112.479H132.635C132.667 112.479 132.699 112.485 132.728 112.497C132.758 112.51 132.785 112.528 132.807 112.551C132.83 112.574 132.848 112.602 132.859 112.632C132.871 112.661 132.877 112.693 132.876 112.726V113.523C132.877 113.555 132.872 113.587 132.86 113.617C132.848 113.647 132.831 113.674 132.809 113.697C132.761 113.741 132.699 113.765 132.635 113.765H129.263C129.228 113.769 129.193 113.765 129.16 113.753C129.127 113.741 129.097 113.722 129.072 113.697Z" fill="#F0EBE5"/>
<path d="M135.916 113.697C135.894 113.674 135.876 113.647 135.865 113.617C135.853 113.587 135.848 113.555 135.849 113.523V105.98C135.849 105.915 135.861 105.85 135.887 105.789C135.912 105.728 135.948 105.673 135.995 105.627C136.041 105.58 136.096 105.544 136.157 105.52C136.218 105.495 136.283 105.484 136.349 105.486H138.512C138.966 105.483 139.413 105.597 139.81 105.818C140.195 106.034 140.518 106.345 140.748 106.722C140.999 107.143 141.119 107.63 141.093 108.12C141.067 108.61 140.896 109.081 140.602 109.474C140.276 109.904 139.821 110.218 139.304 110.372L141.226 113.349C141.254 113.399 141.269 113.455 141.271 113.512C141.272 113.545 141.266 113.577 141.253 113.607C141.241 113.637 141.222 113.664 141.198 113.686C141.145 113.732 141.077 113.756 141.007 113.753H140.074C140.013 113.757 139.953 113.744 139.899 113.715C139.845 113.687 139.801 113.643 139.771 113.591L137.849 110.502H137.287V113.512C137.287 113.577 137.261 113.64 137.214 113.686C137.191 113.709 137.164 113.727 137.134 113.738C137.104 113.75 137.072 113.755 137.04 113.753H136.113C136.078 113.758 136.042 113.756 136.009 113.746C135.975 113.736 135.943 113.72 135.916 113.697ZM138.445 109.204C138.605 109.21 138.765 109.185 138.915 109.129C139.066 109.073 139.204 108.988 139.321 108.878C139.433 108.769 139.52 108.638 139.579 108.493C139.637 108.348 139.664 108.192 139.658 108.036C139.665 107.878 139.639 107.72 139.581 107.573C139.523 107.426 139.434 107.293 139.321 107.182C139.205 107.07 139.068 106.983 138.917 106.925C138.767 106.867 138.606 106.84 138.445 106.845H137.265V109.204H138.445Z" fill="#F0EBE5"/>
<path d="M148.985 115.944C148.963 115.925 148.946 115.902 148.934 115.876C148.922 115.849 148.917 115.821 148.918 115.792V104.835C148.917 104.806 148.922 104.777 148.934 104.751C148.946 104.725 148.963 104.702 148.985 104.683C149.004 104.665 149.026 104.651 149.05 104.641C149.074 104.631 149.099 104.627 149.125 104.627H149.845C149.873 104.624 149.901 104.628 149.927 104.637C149.954 104.647 149.978 104.662 149.997 104.682C150.017 104.702 150.033 104.726 150.042 104.752C150.052 104.779 150.055 104.807 150.053 104.835V115.792C150.055 115.82 150.052 115.848 150.042 115.875C150.033 115.901 150.017 115.925 149.997 115.945C149.978 115.965 149.954 115.98 149.927 115.989C149.901 115.999 149.873 116.003 149.845 116H149.125C149.099 116 149.074 115.996 149.05 115.986C149.026 115.976 149.004 115.962 148.985 115.944Z" fill="#F0EBE5"/>
<path d="M157.632 113.692C157.606 113.667 157.586 113.638 157.572 113.605C157.559 113.572 157.552 113.536 157.554 113.501C157.547 113.469 157.547 113.437 157.554 113.405L160.065 105.683C160.086 105.607 160.134 105.54 160.2 105.497C160.265 105.449 160.344 105.423 160.425 105.424H161.329C161.41 105.423 161.49 105.449 161.554 105.497C161.621 105.54 161.669 105.607 161.689 105.683L164.234 113.405C164.241 113.437 164.241 113.469 164.234 113.501C164.236 113.536 164.23 113.572 164.216 113.605C164.202 113.638 164.182 113.667 164.156 113.692C164.102 113.741 164.032 113.767 163.959 113.765H163.111C163.03 113.766 162.95 113.741 162.886 113.692C162.825 113.642 162.78 113.576 162.757 113.501L162.234 111.816H159.52L158.998 113.501C158.974 113.576 158.929 113.642 158.869 113.692C158.802 113.741 158.721 113.767 158.638 113.765H157.829C157.756 113.767 157.686 113.741 157.632 113.692ZM161.83 110.524L160.874 107.429L159.925 110.524H161.83Z" fill="#F0EBE5"/>
<path d="M167.005 113.697C166.982 113.674 166.965 113.647 166.953 113.617C166.942 113.587 166.936 113.555 166.937 113.523V105.98C166.937 105.915 166.95 105.85 166.975 105.789C167 105.728 167.037 105.673 167.083 105.627C167.129 105.58 167.185 105.544 167.246 105.52C167.306 105.495 167.372 105.484 167.437 105.486H169.499C169.97 105.486 170.433 105.609 170.842 105.843C171.251 106.076 171.592 106.412 171.831 106.817C172.07 107.222 172.196 107.684 172.196 108.154C172.196 108.624 172.07 109.086 171.831 109.491C171.592 109.896 171.251 110.232 170.842 110.465C170.433 110.699 169.97 110.822 169.499 110.822H168.375V113.523C168.375 113.589 168.349 113.651 168.302 113.697C168.28 113.72 168.253 113.738 168.223 113.749C168.193 113.761 168.16 113.766 168.128 113.765H167.201C167.165 113.768 167.13 113.764 167.096 113.752C167.062 113.741 167.031 113.722 167.005 113.697ZM169.437 109.491C169.792 109.491 170.132 109.35 170.383 109.099C170.634 108.848 170.775 108.508 170.775 108.154C170.775 107.799 170.634 107.459 170.383 107.209C170.132 106.958 169.792 106.817 169.437 106.817H168.353V109.491H169.437Z" fill="#F0EBE5"/>
<path d="M175.095 113.697C175.049 113.651 175.023 113.589 175.022 113.523V105.98C175.022 105.915 175.035 105.85 175.06 105.789C175.085 105.728 175.122 105.673 175.169 105.627C175.215 105.58 175.27 105.544 175.331 105.52C175.392 105.495 175.457 105.484 175.523 105.486H177.719C178.173 105.483 178.621 105.597 179.017 105.818C179.404 106.037 179.727 106.352 179.956 106.733C180.185 107.114 180.306 107.552 180.304 107.997C180.309 108.535 180.133 109.059 179.804 109.485C179.48 109.917 179.025 110.232 178.506 110.384L180.428 113.36C180.459 113.409 180.477 113.465 180.478 113.523C180.478 113.556 180.471 113.589 180.458 113.619C180.444 113.649 180.424 113.676 180.4 113.697C180.347 113.743 180.278 113.767 180.209 113.765H179.259C179.198 113.767 179.138 113.754 179.085 113.725C179.031 113.696 178.987 113.654 178.956 113.602L177.034 110.513H176.472V113.523C176.473 113.555 176.467 113.587 176.456 113.617C176.444 113.647 176.427 113.674 176.405 113.697C176.357 113.741 176.295 113.765 176.23 113.765H175.303C175.266 113.772 175.227 113.769 175.191 113.757C175.155 113.745 175.122 113.725 175.095 113.697ZM177.618 109.204C177.779 109.211 177.939 109.186 178.09 109.13C178.24 109.074 178.378 108.989 178.495 108.878C178.608 108.77 178.696 108.639 178.755 108.493C178.814 108.348 178.842 108.193 178.838 108.036C178.844 107.878 178.817 107.72 178.758 107.573C178.699 107.425 178.609 107.292 178.495 107.182C178.379 107.069 178.242 106.981 178.091 106.923C177.941 106.865 177.78 106.839 177.618 106.845H176.438V109.204H177.618Z" fill="#F0EBE5"/>
<path d="M183.434 113.619C183.385 113.574 183.347 113.519 183.322 113.458C183.297 113.397 183.285 113.331 183.287 113.265V105.964C183.287 105.898 183.299 105.833 183.324 105.772C183.349 105.712 183.386 105.657 183.433 105.61C183.479 105.564 183.535 105.528 183.596 105.504C183.657 105.48 183.722 105.468 183.787 105.469H187.721C187.785 105.469 187.847 105.493 187.895 105.537C187.917 105.56 187.934 105.587 187.946 105.617C187.958 105.647 187.963 105.679 187.962 105.711V106.581C187.964 106.614 187.959 106.646 187.947 106.676C187.936 106.706 187.918 106.733 187.895 106.756C187.872 106.779 187.845 106.796 187.815 106.808C187.785 106.819 187.753 106.825 187.721 106.823H184.681V108.794H186.928C186.993 108.794 187.055 108.818 187.103 108.862C187.125 108.884 187.143 108.912 187.155 108.942C187.166 108.972 187.171 109.004 187.17 109.036V109.856C187.171 109.888 187.166 109.92 187.155 109.95C187.143 109.98 187.125 110.007 187.103 110.03C187.056 110.075 186.994 110.101 186.928 110.103H184.681V112.394H187.721C187.785 112.394 187.847 112.418 187.895 112.462C187.917 112.485 187.934 112.512 187.946 112.542C187.958 112.572 187.963 112.604 187.962 112.636V113.506C187.963 113.538 187.958 113.57 187.946 113.6C187.934 113.63 187.917 113.657 187.895 113.68C187.847 113.724 187.785 113.748 187.721 113.748H183.787C183.723 113.752 183.658 113.743 183.597 113.721C183.536 113.699 183.48 113.664 183.434 113.619Z" fill="#F0EBE5"/>
<path d="M191.035 113.697C191.013 113.674 190.996 113.647 190.984 113.617C190.972 113.587 190.967 113.555 190.968 113.523V105.818C190.969 105.729 191.006 105.645 191.069 105.583C191.132 105.521 191.217 105.486 191.305 105.486H192.255C192.318 105.485 192.38 105.501 192.435 105.531C192.49 105.562 192.537 105.606 192.569 105.66L195.35 110.361L195.912 111.333V105.716C195.911 105.684 195.916 105.652 195.927 105.622C195.939 105.592 195.957 105.565 195.98 105.542C196.002 105.519 196.03 105.502 196.06 105.49C196.09 105.478 196.122 105.473 196.154 105.475H196.985C197.018 105.473 197.05 105.479 197.08 105.49C197.11 105.502 197.137 105.52 197.16 105.542C197.184 105.564 197.203 105.591 197.215 105.621C197.228 105.651 197.234 105.684 197.233 105.716V113.416C197.233 113.462 197.225 113.506 197.207 113.548C197.19 113.589 197.164 113.627 197.132 113.658C197.1 113.689 197.064 113.713 197.023 113.729C196.983 113.746 196.939 113.754 196.896 113.753H195.935C195.872 113.755 195.809 113.74 195.754 113.709C195.698 113.679 195.652 113.634 195.62 113.579L192.749 108.716L192.294 107.929V113.512C192.296 113.545 192.291 113.578 192.279 113.609C192.268 113.64 192.25 113.668 192.226 113.692C192.178 113.733 192.116 113.755 192.052 113.753H191.204C191.143 113.756 191.083 113.736 191.035 113.697Z" fill="#F0EBE5"/>
<path d="M200.604 113.619C200.557 113.573 200.52 113.518 200.495 113.457C200.469 113.396 200.457 113.331 200.458 113.265V105.964C200.458 105.898 200.471 105.833 200.496 105.772C200.521 105.711 200.558 105.656 200.604 105.61C200.65 105.563 200.706 105.527 200.767 105.503C200.827 105.479 200.893 105.467 200.958 105.469H203.206C203.769 105.461 204.324 105.605 204.812 105.886C205.301 106.167 205.705 106.574 205.981 107.064C206.263 107.563 206.409 108.126 206.403 108.699V110.518C206.409 111.091 206.263 111.655 205.981 112.153C205.705 112.643 205.301 113.05 204.812 113.331C204.324 113.612 203.769 113.756 203.206 113.748H200.958C200.893 113.752 200.828 113.743 200.767 113.721C200.706 113.699 200.651 113.664 200.604 113.619ZM203.172 112.411C203.496 112.412 203.814 112.327 204.093 112.164C204.37 112 204.601 111.768 204.762 111.49C204.93 111.208 205.018 110.886 205.015 110.558V108.682C205.017 108.357 204.929 108.039 204.762 107.761C204.601 107.483 204.37 107.251 204.093 107.087C203.814 106.924 203.496 106.839 203.172 106.84H201.88V112.411H203.172Z" fill="#F0EBE5"/>
<path d="M209.549 113.619C209.502 113.573 209.464 113.518 209.439 113.457C209.414 113.396 209.402 113.331 209.403 113.265V105.964C209.403 105.898 209.416 105.833 209.441 105.772C209.466 105.711 209.503 105.656 209.549 105.61C209.595 105.563 209.65 105.527 209.711 105.503C209.772 105.479 209.837 105.467 209.903 105.469H213.836C213.868 105.468 213.9 105.473 213.93 105.484C213.96 105.496 213.988 105.514 214.01 105.536C214.033 105.559 214.051 105.587 214.063 105.617C214.074 105.647 214.079 105.679 214.078 105.711V106.581C214.078 106.646 214.054 106.708 214.01 106.755C213.987 106.778 213.96 106.795 213.93 106.807C213.9 106.818 213.868 106.824 213.836 106.823H210.802V108.794H213.049C213.081 108.793 213.113 108.799 213.143 108.81C213.173 108.822 213.2 108.839 213.224 108.862C213.246 108.884 213.264 108.912 213.276 108.942C213.287 108.972 213.293 109.004 213.291 109.036V109.856C213.293 109.888 213.287 109.92 213.276 109.95C213.264 109.98 213.246 110.007 213.224 110.03C213.177 110.076 213.115 110.102 213.049 110.103H210.802V112.394H213.836C213.868 112.393 213.9 112.398 213.93 112.409C213.96 112.421 213.988 112.439 214.01 112.461C214.033 112.484 214.051 112.511 214.063 112.542C214.074 112.572 214.079 112.604 214.078 112.636V113.506C214.079 113.538 214.074 113.571 214.063 113.601C214.051 113.631 214.033 113.658 214.01 113.681C213.988 113.703 213.96 113.721 213.93 113.733C213.9 113.744 213.868 113.749 213.836 113.748H209.903C209.838 113.752 209.773 113.743 209.712 113.721C209.651 113.699 209.596 113.664 209.549 113.619Z" fill="#F0EBE5"/>
<path d="M217.157 113.697C217.11 113.651 217.084 113.589 217.083 113.523V105.98C217.083 105.915 217.096 105.85 217.121 105.789C217.146 105.728 217.183 105.673 217.23 105.627C217.276 105.58 217.331 105.544 217.392 105.52C217.453 105.495 217.518 105.484 217.584 105.486H219.752C220.206 105.483 220.654 105.597 221.05 105.818C221.437 106.037 221.76 106.352 221.989 106.733C222.218 107.114 222.339 107.552 222.337 107.997C222.342 108.535 222.166 109.059 221.837 109.485C221.513 109.917 221.058 110.232 220.539 110.384L222.461 113.36C222.492 113.409 222.51 113.465 222.511 113.523C222.511 113.556 222.504 113.589 222.491 113.619C222.477 113.649 222.457 113.676 222.432 113.697C222.38 113.743 222.311 113.767 222.241 113.765H221.292C221.231 113.767 221.171 113.754 221.118 113.725C221.064 113.696 221.02 113.654 220.988 113.602L219.067 110.513H218.505V113.523C218.506 113.555 218.5 113.587 218.489 113.617C218.477 113.647 218.46 113.674 218.438 113.697C218.39 113.741 218.328 113.765 218.263 113.765H217.331C217.299 113.766 217.266 113.761 217.236 113.749C217.206 113.738 217.179 113.72 217.157 113.697ZM219.679 109.204C219.84 109.211 220 109.186 220.151 109.13C220.301 109.074 220.439 108.989 220.556 108.878C220.669 108.77 220.757 108.639 220.816 108.493C220.875 108.348 220.903 108.193 220.899 108.036C220.905 107.878 220.878 107.72 220.819 107.573C220.76 107.425 220.67 107.292 220.556 107.182C220.44 107.069 220.303 106.981 220.152 106.923C220.002 106.865 219.841 106.839 219.679 106.845H218.499V109.204H219.679Z" fill="#F0EBE5"/>
<path d="M167.431 0.0112529H87.8594V0.52234C104.828 0.52234 121.296 16.4278 121.296 33.9508H121.808V2.81943C121.806 2.60585 121.782 2.39304 121.734 2.18478C134.792 6.71155 145.518 19.7976 145.518 33.9396H146.03V2.81943C146.029 2.60585 146.004 2.39304 145.957 2.18478C159.014 6.71155 169.741 19.7976 169.741 33.9396H170.252V2.81943C170.252 2.4497 170.179 2.08362 170.037 1.74218C169.895 1.40075 169.687 1.09068 169.425 0.829765C169.163 0.568855 168.852 0.362242 168.51 0.22178C168.168 0.0813186 167.801 0.00977405 167.431 0.0112529Z" fill="#F0EBE5"/>
</g>
<defs>
<clipPath id="clip0_228_1503">
<rect width="223.849" height="116" fill="white"/>
</clipPath>
</defs>
</svg>
