<svg width="52" height="52" viewBox="0 0 52 52" fill="none" xmlns="http://www.w3.org/2000/svg">
<path d="M25.5824 13.4875C18.5184 13.4875 12.7912 19.2147 12.7912 26.2787C12.7912 33.3426 18.5184 39.0699 25.5824 39.0699C32.6463 39.0699 38.3736 33.3426 38.3736 26.2787C38.3736 19.2147 32.6463 13.4875 25.5824 13.4875ZM25.5824 32.6743C22.0552 32.6743 19.1868 29.8058 19.1868 26.2787C19.1868 22.7515 22.0552 19.8831 25.5824 19.8831C29.1096 19.8831 31.978 22.7515 31.978 26.2787C31.978 29.8058 29.1096 32.6743 25.5824 32.6743ZM35.1758 0.696289H15.989C7.15347 0.696289 0 7.84976 0 16.6853V35.8721C0 44.7044 7.15347 51.8611 15.989 51.8611H35.1758C44.0081 51.8611 51.1648 44.7044 51.1648 35.8721V16.6853C51.1648 7.84976 44.0081 0.696289 35.1758 0.696289ZM44.7692 35.8721C44.7692 41.158 40.4617 45.4655 35.1758 45.4655H15.989C10.703 45.4655 6.3956 41.158 6.3956 35.8721V16.6853C6.3956 11.3993 10.703 7.09189 15.989 7.09189H35.1758C40.4617 7.09189 44.7692 11.3993 44.7692 16.6853V35.8721ZM38.3736 10.2897C36.6052 10.2897 35.1758 11.7191 35.1758 13.4875C35.1758 15.2559 36.6052 16.6853 38.3736 16.6853C40.142 16.6853 41.5714 15.2559 41.5714 13.4875C41.5714 11.7191 40.142 10.2897 38.3736 10.2897Z" fill="#F0EBE5"/>
</svg>
