<svg width="52" height="52" viewBox="0 0 52 52" fill="none" xmlns="http://www.w3.org/2000/svg">
<path d="M47.375 0H3.77696C1.69199 0 0 1.6522 0 3.68671V47.4731C0 49.5104 1.69199 51.1648 3.77696 51.1648H47.375C49.4614 51.1648 51.1648 49.5104 51.1648 47.4731V3.68671C51.1648 1.6522 49.4614 0 47.375 0ZM15.1746 43.5995H7.58233V19.1832H15.1746V43.5995ZM11.3785 15.8447C8.94602 15.8447 6.97973 13.8735 6.97973 11.4431C6.97973 9.01637 8.94602 7.0451 11.3785 7.0451C13.8052 7.0451 15.7765 9.01637 15.7765 11.4431C15.7765 13.8735 13.8052 15.8447 11.3785 15.8447ZM43.5966 43.5995H36.0164V31.7264C36.0164 28.8939 35.961 25.2519 32.0718 25.2519C28.1221 25.2519 27.5203 28.3368 27.5203 31.521V43.6002H19.9344V19.1832H27.2147V22.5175H27.3184C28.3318 20.5988 30.8076 18.5742 34.5 18.5742C42.179 18.5742 43.5974 23.6296 43.5974 30.2064V43.5995H43.5966Z" fill="#F0EBE5"/>
</svg>
